
<svg version="1.0" xmlns="http://www.w3.org/2000/svg"
 width="1080.000000pt" height="1080.000000pt" viewBox="0 0 1080.000000 1080.000000"
 preserveAspectRatio="xMidYMid meet">
<g transform="translate(0.000000,1080.000000) scale(0.100000,-0.100000)"
fill="#000000" stroke="none">
<path d="M5676 9652 c-10 -55 -70 -811 -64 -817 6 -6 168 -20 169 -14 0 2 17
192 38 421 l36 417 -55 6 c-30 3 -69 7 -87 10 -28 3 -32 0 -37 -23z"/>
<path d="M6045 9533 c-10 -54 -43 -241 -74 -415 -50 -277 -55 -318 -42 -322
43 -12 153 -28 157 -23 7 7 153 821 148 826 -5 5 -132 30 -155 31 -13 0 -20
-21 -34 -97z"/>
<path d="M4343 9501 c-155 -42 -285 -79 -288 -83 -6 -5 190 -756 200 -766 3
-3 167 38 174 44 2 2 -13 64 -34 139 -20 75 -35 138 -33 140 2 2 82 25 177 51
l173 48 -6 31 c-4 17 -12 50 -19 72 l-12 40 -175 -47 c-96 -26 -178 -45 -181
-41 -9 9 -54 189 -48 195 2 3 90 28 194 56 104 29 193 54 197 56 5 4 -26 132
-34 139 -2 2 -130 -32 -285 -74z"/>
<path d="M5303 9453 c-13 -2 -23 -10 -23 -17 0 -7 5 -83 11 -168 12 -176 5
-224 -38 -257 -66 -53 -160 -45 -196 17 -15 25 -22 71 -32 220 -8 103 -14 187
-14 187 -1 0 -39 -1 -86 -3 l-85 -3 0 -54 c0 -114 22 -358 36 -397 36 -103
118 -158 237 -158 73 0 121 15 173 55 l32 25 7 -31 7 -31 82 7 c44 4 81 7 82
8 0 1 -7 119 -17 262 -10 143 -18 279 -18 303 l-1 42 -67 -1 c-38 -1 -78 -4
-90 -6z"/>
<path d="M6849 9339 c-56 -8 -96 -28 -130 -66 -56 -60 -77 -132 -59 -199 16
-58 67 -114 184 -204 107 -83 137 -124 118 -165 -38 -82 -188 -40 -319 90
l-72 72 -52 -53 -52 -52 22 -31 c62 -87 223 -188 338 -211 107 -23 216 2 269
62 51 55 72 130 54 194 -17 59 -64 111 -187 206 -134 103 -149 133 -97 185 23
23 31 25 74 20 66 -8 142 -49 207 -110 l54 -51 51 51 c51 51 51 52 34 78 -26
39 -143 121 -214 150 -75 30 -160 43 -223 34z"/>
<path d="M7466 8950 c-23 -36 -43 -57 -50 -53 -6 3 -24 15 -39 26 -16 10 -29
18 -31 16 -1 -2 -17 -28 -36 -58 -33 -53 -34 -55 -15 -67 65 -43 67 -28 -24
-173 -87 -137 -101 -178 -87 -254 14 -74 143 -177 222 -177 31 0 33 3 43 50
15 72 14 77 -17 83 -45 9 -75 39 -74 74 0 23 87 177 146 260 1 1 29 -16 61
-37 33 -22 63 -40 66 -40 9 0 69 94 69 108 0 6 -27 27 -60 48 l-60 37 22 36
c12 20 30 48 40 63 l19 27 -71 46 c-38 25 -74 45 -78 45 -4 0 -24 -27 -46 -60z"/>
<path d="M7806 8569 c-10 -30 -26 -95 -26 -106 0 -7 12 -16 28 -19 52 -13 118
-53 155 -93 31 -34 37 -48 37 -84 0 -23 -7 -50 -15 -60 -13 -18 -19 -14 -97
53 -106 92 -147 114 -219 114 -46 1 -62 -4 -93 -27 -45 -35 -76 -94 -76 -144
1 -110 134 -243 245 -243 l38 0 -22 -24 -23 -24 40 -37 c22 -19 51 -44 65 -55
l24 -19 131 149 c137 156 167 202 178 267 17 111 -84 250 -240 326 -67 33
-124 44 -130 26z m-25 -357 c14 -9 48 -37 75 -60 l49 -44 -33 -29 c-51 -46
-124 -37 -179 23 -33 36 -38 69 -13 101 25 32 63 35 101 9z"/>
<path d="M2755 8468 c-36 -43 -65 -105 -65 -142 l0 -30 -28 27 -28 27 -59 -60
-58 -59 56 -63 c31 -35 126 -135 211 -223 l155 -160 62 62 62 61 -117 126
c-119 128 -136 155 -136 207 0 37 14 65 53 106 l30 32 -31 38 c-16 21 -41 48
-55 61 l-24 23 -28 -33z"/>
<path d="M3450 8473 c-39 -27 -49 -45 -50 -90 -1 -116 157 -154 206 -49 47 98
-67 200 -156 139z"/>
<path d="M8220 8003 c-29 -11 -67 -38 -107 -78 -74 -74 -99 -139 -91 -240 10
-116 103 -252 204 -296 56 -25 148 -37 158 -20 4 7 2 43 -4 80 l-11 69 -44 4
c-124 14 -186 159 -108 255 44 55 88 75 156 70 49 -3 62 -8 92 -37 43 -41 58
-86 50 -142 l-6 -43 67 -27 c36 -15 70 -26 74 -23 4 3 13 27 20 55 32 133 -78
314 -225 369 -67 25 -160 26 -225 4z"/>
<path d="M2323 7975 c-59 -30 -131 -103 -164 -166 -16 -32 -24 -67 -27 -127
-4 -77 -2 -87 27 -147 57 -115 156 -179 281 -179 62 0 84 4 130 28 64 32 128
91 170 156 35 55 64 160 55 200 -7 30 -7 30 -63 24 -80 -8 -79 -7 -84 -62 -6
-61 -55 -135 -108 -163 -33 -18 -119 -26 -133 -13 -3 3 58 89 135 192 l142
185 -30 24 c-59 48 -115 68 -199 71 -70 3 -86 0 -132 -23z m151 -131 c9 -3 16
-10 16 -16 0 -5 -39 -60 -87 -123 l-88 -114 -18 29 c-29 47 -31 89 -5 140 37
72 117 109 182 84z"/>
<path d="M8676 7445 c-198 -101 -363 -188 -368 -193 -7 -7 48 -139 67 -160 1
-2 33 14 70 34 l67 37 59 -18 c33 -10 58 -23 56 -29 -3 -6 -30 -68 -61 -137
-31 -70 -56 -132 -56 -138 0 -6 21 -53 47 -104 l46 -92 13 30 c7 17 49 109 93
205 64 139 84 174 98 172 14 -3 243 -72 320 -97 7 -2 -9 38 -34 90 l-47 94
-169 59 -170 59 64 35 c35 20 129 68 209 108 80 40 146 73 148 75 7 6 -73 155
-83 155 -5 0 -172 -83 -369 -185z"/>
<path d="M2007 7399 c-88 -21 -163 -82 -208 -169 -19 -36 -24 -61 -24 -123 0
-65 -2 -76 -15 -71 -33 14 -42 6 -75 -63 -31 -66 -32 -74 -17 -82 48 -26 726
-351 731 -351 4 0 24 34 44 77 30 59 35 78 25 84 -7 5 -63 32 -125 61 -106 50
-132 68 -98 68 8 0 33 17 56 37 114 103 132 292 38 406 -79 96 -226 152 -332
126z m149 -204 c23 -13 49 -36 58 -50 77 -117 -31 -271 -166 -237 -80 21 -148
93 -148 158 0 36 31 103 58 127 47 42 128 43 198 2z"/>
<path d="M1725 6667 c-66 -22 -99 -43 -144 -92 -132 -143 -129 -376 6 -495 95
-83 247 -102 353 -44 144 78 215 266 164 431 -24 76 -105 161 -179 187 -69 23
-152 29 -200 13z m164 -195 c73 -38 101 -124 67 -206 -54 -128 -276 -104 -318
35 -20 68 20 155 86 185 39 18 116 11 165 -14z"/>
<path d="M9073 6426 c-199 -33 -364 -64 -368 -67 -7 -8 50 -354 71 -429 34
-121 115 -218 222 -268 50 -24 69 -27 157 -27 80 1 111 5 157 23 106 42 175
115 219 230 31 82 29 188 -10 409 -17 99 -31 184 -31 187 0 11 -57 4 -417 -58z
m311 -231 c9 -50 16 -110 16 -134 0 -144 -101 -241 -253 -241 -107 0 -184 53
-221 151 -15 42 -50 228 -44 234 3 3 482 83 485 81 1 -1 9 -42 17 -91z"/>
<path d="M1179 5937 c0 -12 -3 -52 -8 -89 l-7 -67 41 -6 c22 -3 195 -21 385
-40 190 -19 361 -37 381 -40 l37 -5 9 88 c6 48 9 88 8 89 -1 2 -179 21 -396
43 -217 22 -406 42 -421 45 -24 4 -28 1 -29 -18z"/>
<path d="M1620 5606 c-72 -16 -112 -38 -160 -87 -59 -61 -83 -134 -78 -239 5
-100 30 -162 89 -221 58 -58 112 -82 200 -87 109 -6 168 15 240 87 73 74 94
131 94 261 0 87 -3 101 -32 161 -18 36 -42 74 -53 84 -20 18 -21 18 -69 -29
l-49 -48 28 -44 c54 -86 47 -190 -20 -256 -41 -41 -60 -48 -60 -20 0 9 -5 111
-10 226 -10 213 -13 227 -50 225 -8 0 -40 -6 -70 -13z m14 -188 c3 -13 6 -80
6 -150 l0 -127 -29 10 c-67 24 -110 102 -96 175 7 41 70 114 98 114 8 0 17
-10 21 -22z"/>
<path d="M9020 5541 c-90 -28 -155 -87 -199 -180 -22 -49 -25 -69 -25 -166 -1
-96 2 -116 23 -155 13 -25 30 -53 38 -62 17 -19 22 -17 96 44 l29 24 -21 35
c-28 47 -36 114 -21 169 13 49 76 120 105 120 17 0 17 -11 11 -152 -4 -84 -9
-188 -13 -230 l-6 -77 37 -7 c43 -8 131 8 184 33 59 28 117 93 142 159 18 49
21 74 18 149 -3 76 -8 98 -33 144 -55 101 -161 162 -278 160 -34 0 -73 -4 -87
-8z m201 -194 c65 -43 87 -129 50 -197 -20 -38 -73 -80 -102 -80 -16 0 -18 7
-14 63 3 34 8 101 11 150 3 48 9 87 13 87 5 0 23 -10 42 -23z"/>
<path d="M1411 4863 c1 -10 8 -47 17 -83 l17 -65 205 -37 c113 -20 213 -38
223 -40 12 -2 -46 -48 -167 -132 -156 -109 -185 -133 -181 -150 3 -12 11 -50
19 -85 8 -34 16 -65 18 -67 2 -2 124 82 271 187 168 120 267 197 267 208 -1 9
-9 50 -18 91 l-18 75 -314 57 c-173 31 -321 57 -327 57 -7 1 -13 -7 -12 -16z"/>
<path d="M9036 4760 c-164 -27 -302 -54 -306 -60 -4 -6 -15 -47 -25 -91 l-18
-80 24 -17 c13 -9 131 -96 262 -194 130 -98 241 -178 245 -178 7 0 43 129 42
153 0 4 -81 67 -179 141 l-180 134 67 11 c37 6 137 21 222 34 l155 22 16 60
c33 123 33 115 2 114 -16 -1 -163 -23 -327 -49z"/>
<path d="M2080 4286 c0 -2 -11 -28 -24 -59 l-25 -55 39 -26 c76 -50 115 -179
77 -253 -37 -70 -38 -69 -137 161 l-92 215 -27 -10 c-87 -33 -159 -99 -194
-178 -28 -65 -21 -187 17 -264 38 -78 121 -152 194 -173 160 -47 338 40 388
189 48 141 -13 332 -134 424 -36 27 -82 44 -82 29z m-133 -346 c29 -69 51
-130 48 -137 -6 -18 -43 -16 -92 6 -88 40 -111 168 -45 244 9 10 20 16 25 14
6 -2 34 -59 64 -127z"/>
<path d="M8687 4206 c-92 -33 -175 -122 -218 -235 -25 -63 -31 -182 -11 -218
l12 -21 63 20 63 21 -4 58 c-4 49 0 68 22 114 15 30 41 64 58 76 30 22 118 39
118 23 -1 -5 -43 -101 -95 -214 l-94 -205 51 -24 c160 -75 337 -6 414 162 25
53 29 74 29 147 0 73 -4 92 -27 136 -71 135 -245 208 -381 160z m245 -237 c30
-40 34 -98 10 -152 -25 -57 -70 -87 -131 -87 -50 0 -53 -14 22 152 55 125 65
133 99 87z"/>
<path d="M8274 3604 c-26 -42 -43 -79 -38 -83 5 -4 165 -107 357 -229 l347
-221 46 70 c25 39 44 75 42 79 -2 5 -162 110 -355 234 l-353 224 -46 -74z"/>
<path d="M2196 3601 c-181 -60 -299 -229 -283 -405 3 -35 18 -92 32 -127 34
-85 271 -413 292 -405 18 7 633 456 633 462 0 15 -248 339 -290 378 -108 101
-256 139 -384 97z m205 -173 c62 -18 147 -102 223 -219 l16 -26 -194 -142
c-107 -77 -199 -141 -204 -141 -10 0 -110 137 -138 190 -13 25 -19 56 -19 107
0 63 3 76 30 114 75 106 180 149 286 117z"/>
<path d="M8138 3327 c-69 -26 -128 -68 -170 -120 -62 -78 -81 -129 -82 -217
-1 -96 27 -161 95 -225 69 -65 127 -89 215 -89 132 -1 252 83 316 220 28 60
30 72 26 147 -3 57 -11 94 -25 122 -27 51 -96 117 -153 146 -56 28 -168 36
-222 16z m142 -177 c89 -45 127 -158 78 -229 -33 -49 -69 -73 -119 -78 -91
-10 -192 80 -192 170 0 121 123 193 233 137z"/>
<path d="M7545 3067 c-23 -18 -53 -42 -69 -54 l-28 -22 81 -105 c45 -57 81
-106 81 -109 0 -2 -21 -7 -47 -11 -58 -7 -140 -53 -177 -97 -56 -66 -71 -108
-71 -199 0 -74 4 -92 28 -138 36 -69 105 -138 165 -165 69 -32 180 -30 247 3
72 35 142 108 157 164 l12 46 22 -21 23 -21 65 47 c37 28 62 53 59 59 -13 21
-475 621 -492 638 -15 15 -19 14 -56 -15z m134 -427 c38 -11 95 -60 117 -102
22 -42 18 -119 -8 -158 -43 -63 -134 -88 -197 -56 -74 39 -123 137 -102 207
18 59 84 113 146 118 6 1 26 -3 44 -9z"/>
<path d="M3133 2770 c-91 -18 -175 -86 -229 -183 -26 -46 -29 -62 -29 -142 0
-80 3 -95 27 -136 55 -93 153 -158 241 -159 l47 0 -80 -110 c-45 -61 -83 -116
-85 -123 -4 -10 97 -91 129 -103 10 -3 487 644 494 672 3 10 -92 88 -121 99
-7 3 -20 -7 -29 -22 l-16 -27 -12 44 c-16 62 -107 151 -176 173 -69 22 -112
26 -161 17z m140 -174 c18 -7 46 -28 62 -45 27 -29 30 -39 30 -95 0 -51 -5
-70 -28 -104 -66 -101 -194 -108 -265 -14 -59 77 -21 200 78 250 51 26 78 27
123 8z"/>
<path d="M6967 2410 c-105 -27 -213 -105 -251 -182 l-27 -53 43 -18 c58 -25
98 -32 98 -19 0 20 62 83 100 102 75 38 155 35 195 -10 17 -18 11 -22 -186
-121 -112 -55 -205 -103 -207 -104 -8 -7 50 -104 83 -138 61 -63 107 -82 205
-82 76 0 92 3 152 33 82 40 150 112 173 183 50 149 -26 331 -163 391 -53 24
-157 32 -215 18z m233 -342 c0 -112 -139 -187 -231 -125 -19 12 -34 29 -34 36
0 12 225 128 253 130 8 1 12 -14 12 -41z"/>
<path d="M3735 2383 c-34 -9 -36 -17 -14 -81 l21 -63 43 7 c93 13 216 -61 230
-139 14 -73 15 -73 -208 28 -115 53 -212 93 -217 90 -5 -3 -18 -31 -30 -63
-18 -46 -21 -72 -18 -133 7 -123 66 -201 195 -262 83 -38 182 -41 261 -7 61
26 134 101 165 168 33 72 31 179 -6 254 -56 114 -193 199 -327 204 -41 2 -84
0 -95 -3z m153 -398 c45 -21 81 -43 79 -49 -2 -6 -18 -21 -37 -33 -71 -49
-182 -17 -220 62 -21 43 -24 63 -14 89 6 16 -4 20 192 -69z"/>
<path d="M6468 2201 c-32 -10 -64 -21 -72 -24 -12 -5 -8 -26 20 -119 63 -204
67 -228 55 -269 -14 -46 -69 -96 -116 -105 -20 -4 -34 -11 -32 -18 2 -6 12
-42 23 -79 18 -64 20 -68 44 -62 40 10 98 52 129 96 l29 40 7 -31 c4 -16 10
-32 15 -35 9 -5 140 32 152 43 12 12 -166 577 -183 579 -7 1 -40 -6 -71 -16z"/>
<path d="M4427 1988 c-190 -366 -308 -601 -303 -605 7 -7 159 -32 166 -27 3 1
64 118 135 258 72 141 132 256 135 256 3 0 26 -129 50 -287 l45 -288 83 -13
c46 -8 86 -12 88 -9 3 2 65 121 139 263 125 242 134 255 139 223 4 -19 24
-148 46 -288 22 -140 42 -256 44 -258 4 -5 179 -33 183 -29 6 6 -131 822 -139
827 -15 10 -177 31 -188 24 -5 -3 -66 -117 -136 -252 -70 -136 -129 -243 -130
-238 -2 6 -22 132 -45 280 -23 149 -42 271 -43 272 -1 1 -33 7 -71 13 -39 6
-82 13 -97 16 -25 5 -30 -1 -101 -138z"/>
<path d="M5724 2046 c-45 -20 -70 -77 -55 -127 16 -52 53 -79 108 -79 63 0
103 40 103 104 0 84 -80 137 -156 102z"/>
</g>
</svg>
