<?xml version="1.0" encoding="UTF-8"?>
<svg version="1.1" xmlns="http://www.w3.org/2000/svg" width="499" height="499">
<path d="M0 0 C2.68893956 1.79262637 3.86530044 2.61623931 4.625 5.75 C3.75 8 3.75 8 2.625 9.75 C4.3265625 9.7190625 4.3265625 9.7190625 6.0625 9.6875 C9.625 9.75 9.625 9.75 10.625 10.75 C10.24053224 18.31119919 7.8989371 22.70176293 2.5 28.0625 C-1.69370064 31.56181883 -6.07206435 31.72866022 -11.375 31.75 C-10.88 32.554375 -10.385 33.35875 -9.875 34.1875 C-8.01338009 38.60884728 -7.50983822 42.02250883 -8.375 46.75 C-9.76878405 49.94408844 -11.45320884 52.84672265 -13.375 55.75 C-12.446875 56.03875 -11.51875 56.3275 -10.5625 56.625 C-7.375 57.75 -7.375 57.75 -4.375 59.75 C-5.43375074 63.15312738 -6.38402154 65.76353231 -8.375 68.75 C-13.49450941 68.11006132 -17.78685389 65.84468913 -22.375 63.625 C-23.62953979 63.02473999 -23.62953979 63.02473999 -24.90942383 62.41235352 C-31.84852221 59.0654937 -38.64871436 55.50561011 -45.375 51.75 C-44.625 48.375 -44.625 48.375 -43.375 44.75 C-41.27734375 43.58203125 -41.27734375 43.58203125 -39.375 42.75 C-38.85944039 40.72241124 -38.85944039 40.72241124 -38.9375 38.4375 C-38.67853137 34.85222317 -38.48235128 33.89523996 -36.25 30.875 C-31.14445184 27.10133397 -26.75913803 25.28286795 -20.375 25.75 C-20.890625 24.80125 -21.40625 23.8525 -21.9375 22.875 C-23.97631163 18.08864697 -23.56999573 13.73601666 -22.375 8.75 C-17.90840593 -0.5267723 -9.55663453 -3.53949427 0 0 Z M-11.375 8.75 C-13.79347197 11.25484597 -14.375 12.21013806 -14.375 15.75 C-10.54553157 14.29744301 -9.25449705 12.32104439 -7.375 8.75 C-8.695 8.75 -10.015 8.75 -11.375 8.75 Z M-0.375 11.75 C-3.345 15.71 -3.345 15.71 -6.375 19.75 C-5.385 20.08 -4.395 20.41 -3.375 20.75 C-1.22664036 18.50256794 -1.22664036 18.50256794 0.625 15.75 C0.295 14.43 -0.035 13.11 -0.375 11.75 Z M-30.3125 38.9375 C-31.80653143 41.48614185 -31.94210464 42.84358872 -31.375 45.75 C-28.92260041 48.34253671 -27.27117209 49.57930056 -23.75 50.25 C-21.26717002 49.94061156 -21.26717002 49.94061156 -19.5625 48.0625 C-18.15507732 45.32172952 -17.90726711 43.79026376 -18.375 40.75 C-19.33048981 38.79374022 -19.33048981 38.79374022 -21.375 37.75 C-26.06100799 37.22915056 -26.06100799 37.22915056 -30.3125 38.9375 Z " fill="#010101" transform="translate(120.375,129.25)"/>
<path d="M0 0 C2.91978496 1.18954202 4.08482146 2.92346623 5.984375 5.421875 C6.68304688 6.33195312 7.38171875 7.24203125 8.1015625 8.1796875 C8.76414062 9.06398438 9.42671875 9.94828125 10.109375 10.859375 C10.88667969 11.87644531 10.88667969 11.87644531 11.6796875 12.9140625 C12.63610442 14.1736061 13.58270759 15.44065976 14.51953125 16.71484375 C15.75439372 18.38054275 17.01806365 20.0249023 18.29296875 21.66015625 C19.03675781 22.63339844 19.78054688 23.60664063 20.546875 24.609375 C21.24683594 25.51171875 21.94679688 26.4140625 22.66796875 27.34375 C24.109375 29.859375 24.109375 29.859375 24.06640625 32.03515625 C22.84465035 34.3639726 21.65918988 35.04753947 19.359375 36.296875 C15.70748149 38.40975625 13.06004042 40.82674666 10.109375 43.859375 C5.87508678 46.41057794 1.93357264 46.43427938 -2.890625 45.859375 C-6.453125 44.359375 -6.453125 44.359375 -8.890625 42.859375 C-8.9421875 43.64441406 -8.99375 44.42945313 -9.046875 45.23828125 C-9.67582774 51.06324125 -10.26075363 55.04440564 -14.765625 59.046875 C-19.58048545 62.80905683 -23.83241344 63.27718269 -29.890625 62.859375 C-34.55179615 61.12286026 -37.19938408 59.04574976 -39.890625 54.859375 C-40.640625 52.046875 -40.640625 52.046875 -40.890625 49.859375 C-39.570625 49.199375 -38.250625 48.539375 -36.890625 47.859375 C-38.870625 46.539375 -40.850625 45.219375 -42.890625 43.859375 C-42.80864915 41.07219611 -42.32827105 39.34184733 -40.44140625 37.26171875 C-34.59641268 32.1013882 -30.07659619 30.46173219 -22.2734375 30.58984375 C-19.24040548 30.93292442 -17.26210639 31.96218989 -14.890625 33.859375 C-14.85324219 33.19550781 -14.81585938 32.53164063 -14.77734375 31.84765625 C-14.07940051 22.47332058 -14.07940051 22.47332058 -10.890625 18.859375 C-5.20085602 14.859375 -5.20085602 14.859375 -1.890625 14.859375 C-3.870625 12.219375 -5.850625 9.579375 -7.890625 6.859375 C-4.30098357 -0.31990787 -4.30098357 -0.31990787 0 0 Z M-2.203125 24.484375 C-4.19623122 26.79006681 -4.19623122 26.79006681 -3.828125 29.921875 C-2.68290372 33.53620149 -2.68290372 33.53620149 0.109375 35.859375 C2.56646875 36.44288005 2.56646875 36.44288005 5.109375 35.859375 C7.58919252 34.29632974 7.58919252 34.29632974 9.109375 31.859375 C9.109375 28.54219509 8.33974583 27.15329641 6.296875 24.546875 C3.11255666 22.09040085 1.05861771 22.19233958 -2.203125 24.484375 Z M-32.828125 43.359375 C-33.50875 44.184375 -34.189375 45.009375 -34.890625 45.859375 C-31.65407316 45.859375 -30.10309861 45.2042903 -27.203125 43.859375 C-26.39488281 43.488125 -25.58664062 43.116875 -24.75390625 42.734375 C-24.13902344 42.445625 -23.52414062 42.156875 -22.890625 41.859375 C-22.890625 41.529375 -22.890625 41.199375 -22.890625 40.859375 C-27.47574467 40.40985346 -29.23683357 40.30295676 -32.828125 43.359375 Z M-27.890625 51.859375 C-27.890625 52.519375 -27.890625 53.179375 -27.890625 53.859375 C-24.21791456 54.18773156 -24.21791456 54.18773156 -21.078125 52.484375 C-19.6939528 50.92568717 -19.6939528 50.92568717 -19.890625 48.859375 C-22.97072379 48.859375 -25.20197636 50.4566018 -27.890625 51.859375 Z " fill="#010101" transform="translate(350.890625,355.140625)"/>
<path d="M0 0 C3.75206998 3.04955475 6.3224174 6.16933426 7.8984375 10.8046875 C8.24443474 14.29077288 8.50145303 17.59865643 6.8984375 20.8046875 C0.1484375 19.9296875 0.1484375 19.9296875 -2.1015625 18.8046875 C-2.69511864 16.15608323 -2.84365519 13.51271428 -3.1015625 10.8046875 C-7.15152042 9.07432906 -7.15152042 9.07432906 -11.4140625 9.3671875 C-13.310712 10.73187524 -13.310712 10.73187524 -13.9140625 13.2421875 C-14.27544071 15.92407853 -14.27544071 15.92407853 -13.1015625 18.8046875 C-11.9671875 19.1965625 -10.8328125 19.5884375 -9.6640625 19.9921875 C-6.1015625 21.8046875 -6.1015625 21.8046875 -5.31616211 23.73168945 C-4.91129557 25.75602214 -4.50642904 27.78035482 -4.1015625 29.8046875 C-3.60342041 29.52270508 -3.10527832 29.24072266 -2.59204102 28.95019531 C-0.28506952 27.6474726 2.02539597 26.35106699 4.3359375 25.0546875 C5.11904297 24.61125 5.90214844 24.1678125 6.70898438 23.7109375 C18.31380254 17.21605985 18.31380254 17.21605985 22.8984375 15.8046875 C25.8984375 16.8046875 25.8984375 16.8046875 27.6484375 19.1171875 C28.8984375 21.8046875 28.8984375 21.8046875 28.68774414 23.83886719 C27.28327002 27.33680272 23.55928743 28.46798835 20.3359375 30.0546875 C19.62501953 30.41820312 18.91410156 30.78171875 18.18164062 31.15625 C16.42678374 32.05134479 14.663381 32.92964932 12.8984375 33.8046875 C13.71828125 34.08441406 14.538125 34.36414063 15.3828125 34.65234375 C25.28545813 38.33622268 25.28545813 38.33622268 27.6484375 42.3671875 C28.8984375 45.8046875 28.8984375 45.8046875 28.8984375 49.8046875 C27.35581605 49.51811356 25.81438144 49.22514873 24.2734375 48.9296875 C23.41492188 48.76726562 22.55640625 48.60484375 21.671875 48.4375 C18.6665361 47.75177479 15.80735247 46.81982205 12.8984375 45.8046875 C12.21007812 47.51978516 12.21007812 47.51978516 11.5078125 49.26953125 C10.8888171 50.76074744 10.26898165 52.25161513 9.6484375 53.7421875 C9.34808594 54.49693359 9.04773438 55.25167969 8.73828125 56.02929688 C8.43535156 56.74794922 8.13242187 57.46660156 7.8203125 58.20703125 C7.54799805 58.87210693 7.27568359 59.53718262 6.99511719 60.22241211 C5.8984375 61.8046875 5.8984375 61.8046875 3.77832031 62.52954102 C3.15795898 62.62033936 2.53759766 62.7111377 1.8984375 62.8046875 C-2.12001268 56.83789783 -2.12001268 56.83789783 -2.0390625 52.3046875 C-1.03541892 48.55775147 0.2525001 45.3112498 1.8984375 41.8046875 C-1.22446885 42.29047293 -4.09736609 42.8032887 -7.1015625 43.8046875 C-7.97105567 42.73361633 -8.82170455 41.64722806 -9.6640625 40.5546875 C-10.13972656 39.95140625 -10.61539062 39.348125 -11.10546875 38.7265625 C-12.1015625 36.8046875 -12.1015625 36.8046875 -11.87890625 34.6328125 C-11.1015625 32.8046875 -11.1015625 32.8046875 -9.1015625 31.8046875 C-10.2978125 31.4540625 -11.4940625 31.1034375 -12.7265625 30.7421875 C-18.48905805 28.58636026 -21.5729747 24.58393805 -24.4765625 19.3046875 C-25.6834876 14.47698709 -25.7568041 10.54658155 -23.4140625 6.1171875 C-21.11593179 2.50351907 -18.41985971 -0.43881552 -14.24609375 -1.80078125 C-9.41743912 -2.68911298 -4.31884381 -2.45644276 0 0 Z " fill="#010101" transform="translate(394.1015625,129.1953125)"/>
<path d="M0 0 C1.99609375 0.0859375 1.99609375 0.0859375 4.4375 0.375 C5.64212891 0.51035156 5.64212891 0.51035156 6.87109375 0.6484375 C9 1 9 1 11 2 C11.59423828 3.94946289 11.59423828 3.94946289 12.0703125 6.47265625 C12.24433594 7.37177734 12.41835937 8.27089844 12.59765625 9.19726562 C12.77167969 10.14279297 12.94570312 11.08832031 13.125 12.0625 C13.30675781 13.01189453 13.48851562 13.96128906 13.67578125 14.93945312 C14.12493737 17.2916128 14.56596193 19.64501178 15 22 C18.3989636 16.36905031 21.76352732 10.72606705 25 5 C26.62490954 4.97301811 28.24994633 4.95361243 29.875 4.9375 C31.23238281 4.92009766 31.23238281 4.92009766 32.6171875 4.90234375 C35 5 35 5 37 6 C37.62048961 8.69438692 38.11566196 11.32409669 38.54296875 14.05078125 C38.6756868 14.86113327 38.80840485 15.67148529 38.94514465 16.50639343 C39.2242325 18.22483046 39.49881753 19.94400382 39.76928711 21.66381836 C40.184433 24.29307569 40.61749314 26.91892533 41.05273438 29.54492188 C41.32139773 31.21336728 41.58901022 32.88198231 41.85546875 34.55078125 C42.05066353 35.72910271 42.05066353 35.72910271 42.24980164 36.93122864 C42.81751307 40.61086028 43.06348045 43.43648023 42 47 C40.54054712 46.91291331 39.08234132 46.80473093 37.625 46.6875 C36.40683594 46.60048828 36.40683594 46.60048828 35.1640625 46.51171875 C33 46 33 46 31 43 C30.51342773 41.02294922 30.51342773 41.02294922 30.18359375 38.8046875 C30.05919922 38.00675781 29.93480469 37.20882812 29.80664062 36.38671875 C29.68482422 35.55785156 29.56300781 34.72898437 29.4375 33.875 C29.08773711 28.50771358 29.08773711 28.50771358 27 24 C26.74831055 24.50450684 26.49662109 25.00901367 26.23730469 25.52880859 C25.08703403 27.81722515 23.91881124 30.09600128 22.75 32.375 C22.35425781 33.1690625 21.95851562 33.963125 21.55078125 34.78125 C21.15761719 35.54179687 20.76445312 36.30234375 20.359375 37.0859375 C20.00327148 37.7876709 19.64716797 38.4894043 19.28027344 39.21240234 C17.64455813 41.49629011 16.72625267 42.2495539 14 43 C11.69 42.34 9.38 41.68 7 41 C5.68 34.07 4.36 27.14 3 20 C0.07837266 24.67460375 -2.71910883 29.1750862 -5.3125 34 C-5.82425781 34.94875 -6.33601562 35.8975 -6.86328125 36.875 C-7.42595703 37.926875 -7.42595703 37.926875 -8 39 C-11.3 38.34 -14.6 37.68 -18 37 C-16.58777025 32.40223677 -14.72408834 28.16825507 -12.55859375 23.88671875 C-12.23085464 23.23169876 -11.90311554 22.57667877 -11.56544495 21.90180969 C-10.87731695 20.52855684 -10.18725942 19.15626931 -9.49536133 17.78491211 C-8.43299949 15.67857689 -7.37717993 13.5690578 -6.32226562 11.45898438 C-5.65142072 10.12220555 -4.98020985 8.78561029 -4.30859375 7.44921875 C-3.99192245 6.81698898 -3.67525116 6.18475922 -3.34898376 5.53337097 C-1.1161065 1.1161065 -1.1161065 1.1161065 0 0 Z " fill="#010101" transform="translate(207,399)"/>
<path d="M0 0 C2.3125 -0.4375 2.3125 -0.4375 5 0 C7.8125 2 7.8125 2 10 4 C8.125 8.75 8.125 8.75 7 11 C8.65 11.66 10.3 12.32 12 13 C11.45276317 16.37462715 10.9451 18.08235 9 21 C6.61435923 20.42415568 4.33317216 19.77772405 2 19 C1.16121545 20.28813342 0.32913217 21.58063256 -0.5 22.875 C-0.9640625 23.59429687 -1.428125 24.31359375 -1.90625 25.0546875 C-3.16336501 26.91860466 -3.16336501 26.91860466 -3 29 C-0.53673288 30.6446674 -0.53673288 30.6446674 2 32 C2.33 31.505 2.66 31.01 3 30.5 C5.61025542 28.54230843 7.81026348 28.5840486 11.0078125 28.70703125 C13.87394467 29.12852127 15.70097846 30.27573385 18 32 C18.763125 32.556875 19.52625 33.11375 20.3125 33.6875 C20.869375 34.120625 21.42625 34.55375 22 35 C22 34.01 22 33.02 22 32 C19.12498789 29.92360237 16.48624056 28.6456001 13 28 C13.33 25.36 13.66 22.72 14 20 C16.51930384 19.07702924 17.76403338 18.92874275 20.3671875 19.71484375 C26.44276572 22.67692472 31.0413918 25.74762876 34 32 C34.97246587 36.04940867 34.43967436 39.12065128 32.5625 42.875 C31.74016377 43.94197388 30.87878881 44.9790199 30 46 C28.94619141 47.24910156 28.94619141 47.24910156 27.87109375 48.5234375 C21.08233094 56.32995552 21.08233094 56.32995552 17 58 C16.48953125 57.32904297 16.48953125 57.32904297 15.96875 56.64453125 C13.1979781 53.18843545 10.66571232 50.60430768 6.8125 48.375 C3.4184639 46.40866551 1.59832647 44.69612995 0 41 C0 40.34 0 39.68 0 39 C-1.216875 38.9175 -2.43375 38.835 -3.6875 38.75 C-7.81939574 38.22345753 -10.08106633 37.09063565 -13 34 C-14.74707562 31.06173646 -15 29.23750714 -15 25.8125 C-13.81485095 21.29411925 -11.73710829 18.13784146 -9.08203125 14.33203125 C-8.72496094 13.56246094 -8.36789062 12.79289062 -8 12 C-8.8343894 9.86747705 -8.8343894 9.86747705 -10 8 C-8.9375 5.25 -8.9375 5.25 -7 3 C-4.4375 2.875 -4.4375 2.875 -2 3 C-1.34 2.01 -0.68 1.02 0 0 Z M11 38 C11.33 39.65 11.66 41.3 12 43 C13.65 43.33 15.3 43.66 17 44 C17.30697031 41.03837129 17.30697031 41.03837129 15.6875 39.3125 C13.96162871 37.69302969 13.96162871 37.69302969 11 38 Z " fill="#010101" transform="translate(345,82)"/>
<path d="M0 0 C8.34381011 4.69339319 13.45057981 14.44478856 18.5625 22.2578125 C14.71786779 27.35365638 10.51874827 30.69897462 5.25 34.2578125 C3.79473853 35.25659785 2.34030839 36.2565956 0.88671875 37.2578125 C-0.18376709 37.98677734 -0.18376709 37.98677734 -1.27587891 38.73046875 C-4.18125615 40.78333074 -6.94592359 43.00301493 -9.69995117 45.25390625 C-10.27334229 45.58519531 -10.8467334 45.91648437 -11.4375 46.2578125 C-14.81660595 45.13144385 -15.29295774 44.46145533 -17.28515625 41.65234375 C-17.80787109 40.91564453 -18.33058594 40.17894531 -18.86914062 39.41992188 C-19.40732422 38.64455078 -19.94550781 37.86917969 -20.5 37.0703125 C-21.04205078 36.31427734 -21.58410156 35.55824219 -22.14257812 34.77929688 C-26.73283743 28.23718442 -29.41037561 22.45548569 -28.4375 14.2578125 C-26.59535301 7.69516385 -22.72574585 4.23241766 -17.4375 0.2578125 C-12.42267195 -2.24960152 -5.23724821 -1.59467494 0 0 Z M-15.6875 13.0703125 C-17.76538373 15.66766716 -18.36007862 16.92869311 -18.4375 20.2578125 C-16.97878372 24.41515389 -15.274043 27.88097559 -12.4375 31.2578125 C-8.0801774 29.78650877 -4.71815866 27.42700635 -1.125 24.6328125 C-0.57521484 24.21257812 -0.02542969 23.79234375 0.54101562 23.359375 C1.88542168 22.33061211 3.22451413 21.2949116 4.5625 20.2578125 C0.88371348 13.22147469 0.88371348 13.22147469 -5.875 9.4453125 C-10.05279501 9.13962018 -12.47779575 10.48471741 -15.6875 13.0703125 Z " fill="#010101" transform="translate(115.4375,331.7421875)"/>
<path d="M0 0 C1.56060061 7.10630637 2.25617162 14.11607145 2.375 21.375 C2.40078125 22.13538574 2.4265625 22.89577148 2.453125 23.67919922 C2.47443167 29.73162447 0.68246963 33.2388271 -3.59765625 37.64453125 C-8.98536688 41.94033253 -13.10284403 42.47161289 -19.8515625 42.40625 C-24.8729592 41.75832784 -28.49552924 39.61045273 -32 36 C-35.28328239 31.06908502 -36.80431828 26.80759835 -37.75 21 C-37.87503906 20.32710937 -38.00007813 19.65421875 -38.12890625 18.9609375 C-38.90120327 14.56478523 -39.11559682 10.43891771 -39 6 C-36.63058368 5.52611674 -34.26114623 5.05234278 -31.89160156 4.57910156 C-30.03898185 4.20807708 -28.18673148 3.83520063 -26.33496094 3.45996094 C-23.68309536 2.92406105 -21.02926605 2.3988683 -18.375 1.875 C-17.04082031 1.60236328 -17.04082031 1.60236328 -15.6796875 1.32421875 C-10.34462821 0.28074392 -5.43579505 -0.19006276 0 0 Z M-20.25 13.5 C-21.36761719 13.71462891 -21.36761719 13.71462891 -22.5078125 13.93359375 C-24.33917615 14.28577907 -26.16967648 14.64244843 -28 15 C-27.72511288 23.34434266 -27.72511288 23.34434266 -23 30 C-19.93570224 31.53214888 -17.3834358 31.22938548 -14 31 C-11.21098427 29.76043745 -9.55649413 28.71549246 -7.6875 26.3125 C-6.31628296 21.70022452 -6.47626709 16.57119873 -8 12 C-12.23430062 12 -16.11889402 12.68983611 -20.25 13.5 Z " fill="#010101" transform="translate(440,198)"/>
<path d="M0 0 C2.0625 2.0625 2.0625 2.0625 4.0625 5.0625 C5.70801962 5.77977778 7.37672289 6.44575228 9.0625 7.0625 C10.0525 7.7225 11.0425 8.3825 12.0625 9.0625 C11.51250095 12.90116612 10.51895801 15.23889461 8.18359375 18.3203125 C7.59529785 19.10623779 7.00700195 19.89216309 6.40087891 20.7019043 C5.77358887 21.52215088 5.14629883 22.34239746 4.5 23.1875 C3.22502978 24.88394127 1.95028919 26.58055515 0.67578125 28.27734375 C0.05654785 29.0957373 -0.56268555 29.91413086 -1.20068359 30.75732422 C-3.44037899 33.72994215 -5.63063621 36.73470355 -7.8125 39.75 C-8.42867187 40.59949219 -9.04484375 41.44898438 -9.6796875 42.32421875 C-10.09476563 42.89785156 -10.50984375 43.47148437 -10.9375 44.0625 C-14.37844186 42.75003462 -17.07290882 41.39661133 -19.9375 39.0625 C-18.48705729 34.95291233 -16.42639248 31.62991255 -13.9375 28.0625 C-14.80375 27.876875 -15.67 27.69125 -16.5625 27.5 C-21.0216723 25.60072291 -23.48754244 23.23297791 -25.9375 19.0625 C-27.5592315 14.27453081 -27.39844988 10.34934851 -25.3125 5.75 C-22.74689412 1.33048029 -19.74496471 -1.03376765 -15.1875 -3.3125 C-9.52297504 -4.40183172 -4.78440545 -3.15567168 0 0 Z M-13.8125 8.125 C-15.35927804 10.78889551 -15.74602432 12.99888914 -15.9375 16.0625 C-14.26370968 19.1827663 -14.26370968 19.1827663 -11.625 20 C-8.78177191 20.30933337 -8.78177191 20.30933337 -6.1875 18.375 C-3.5001391 15.64803417 -3.5001391 15.64803417 -2.9375 12.0625 C-3.28643166 9.78085976 -3.28643166 9.78085976 -4.9375 8.0625 C-9.48544185 6.74643721 -9.48544185 6.74643721 -13.8125 8.125 Z " fill="#010101" transform="translate(157.9375,372.9375)"/>
<path d="M0 0 C6.06010456 2.10748225 10.83527005 5.1411484 15 10 C13.7251791 12.84383123 12.54862922 15.13754018 10 17 C7.0520392 16.90173464 5.92718894 15.93702827 3.6875 14 C0.43549601 11.579904 -2.01020606 11.31292501 -6 11 C-4.80549703 14.58350891 -3.70650303 15.16312796 -0.6875 17.3125 C4.01316989 20.87542813 7.49153572 23.94921433 8.5 30 C7.85770074 33.85379558 6.4625293 35.99024197 4 39 C-0.47741899 41.76768727 -4.89239867 41.7097956 -10 41 C-16.53049116 38.76890844 -21.66973318 35.35585633 -26 30 C-26 26 -26 26 -23.6875 23.6875 C-22.800625 23.130625 -21.91375 22.57375 -21 22 C-17.28490737 23.23836421 -15.71117136 25.22104936 -13 28 C-9.5647952 30.29013653 -8.014669 30.17842973 -4 30 C-6.95418191 25.93799987 -10.33296225 22.90156103 -14.1953125 19.74609375 C-16.11204297 17.89159479 -17.07486234 16.49259888 -18 14 C-17.92002707 8.96170538 -17.80642825 6.97184942 -14.5625 3.0625 C-9.8949003 -0.69434854 -5.8513865 -0.72632273 0 0 Z " fill="#010101" transform="translate(324,66)"/>
<path d="M0 0 C0.66 2.97 1.32 5.94 2 9 C-0.62394306 9.83679277 -3.24904384 10.66956942 -5.875 11.5 C-6.62136719 11.73847656 -7.36773437 11.97695312 -8.13671875 12.22265625 C-13.7734375 14 -13.7734375 14 -16 14 C-15.67 16.31 -15.34 18.62 -15 21 C-14.10796875 20.71125 -13.2159375 20.4225 -12.296875 20.125 C-11.12640625 19.75375 -9.9559375 19.3825 -8.75 19 C-7.58984375 18.62875 -6.4296875 18.2575 -5.234375 17.875 C-2 17 -2 17 2 17 C2.66 19.97 3.32 22.94 4 26 C-1.28 27.32 -6.56 28.64 -12 30 C-11.484375 31.5675 -10.96875 33.135 -10.4375 34.75 C-9.14530004 38.67828787 -8.95307475 39.81229899 -10 44 C-12.97 44.66 -15.94 45.32 -19 46 C-21.76226157 39.06876958 -23.79094505 32.00779442 -25.75 24.8125 C-26.07871094 23.65041016 -26.40742188 22.48832031 -26.74609375 21.29101562 C-27.20435547 19.60975586 -27.20435547 19.60975586 -27.671875 17.89453125 C-27.9512793 16.88237549 -28.23068359 15.87021973 -28.51855469 14.82739258 C-29.02234704 11.86876215 -28.78600375 9.87378506 -28 7 C-23.89761656 5.82699911 -19.79281741 4.66268694 -15.6875 3.5 C-14.52025391 3.16613281 -13.35300781 2.83226562 -12.15039062 2.48828125 C-11.03212891 2.17246094 -9.91386719 1.85664062 -8.76171875 1.53125 C-7.73006592 1.23798828 -6.69841309 0.94472656 -5.63549805 0.64257812 C-3 0 -3 0 0 0 Z " fill="#010101" transform="translate(215,55)"/>
<path d="M0 0 C6.17138601 2.08355051 10.94874901 5.64340747 14.375 11.25 C15.62548831 16.75214856 14.84221194 21.43174328 12.1875 26.375 C9.33922655 29.79292814 7.21842721 31.5938576 3 33 C-3.3521282 33.53831595 -7.70224682 32.64147114 -13 29 C-17.21164618 24.57237197 -18.27954311 21.12809083 -18.234375 15.0078125 C-17.90258452 12.16547403 -16.69522626 10.26030168 -15 8 C-12.03 8.495 -12.03 8.495 -9 9 C-9.33 6.36 -9.66 3.72 -10 1 C-6.76727978 -0.61636011 -3.50462511 -0.4434675 0 0 Z M-7 10 C-4.77174356 12.22825644 -3.34238372 12.69239369 -0.375 13.625 C0.44226563 13.88539063 1.25953125 14.14578125 2.1015625 14.4140625 C2.72804687 14.60742188 3.35453125 14.80078125 4 15 C2.6910428 11.87802522 2.6910428 11.87802522 0 10 C-2.3329866 9.95977609 -4.66706666 9.95679753 -7 10 Z M-8 18 C-7.72382467 19.94074861 -7.72382467 19.94074861 -7 22 C-4.21885944 24.33391203 -4.21885944 24.33391203 -1.3125 23.625 C-0.549375 23.41875 0.21375 23.2125 1 23 C-1.85306797 20.67527795 -4.54074837 19.2491742 -8 18 Z " fill="#010101" transform="translate(180,387)"/>
<path d="M0 0 C4.42484878 2.21242439 7.19476657 4.94799616 10 9 C11.70108067 14.10324201 11.56521247 18.31873434 9.3125 23.1875 C7.05618336 27.33077184 4.23077385 29.88461307 0 32 C-5.67983816 32.52274617 -10.35705072 32.71435943 -15 29 C-14.34 27.02 -13.68 25.04 -13 23 C-13.763125 23.33 -14.52625 23.66 -15.3125 24 C-18 25 -18 25 -21 25 C-22.88191279 19.35426162 -22.26582424 14.34170791 -20.0546875 8.9296875 C-15.55319298 0.69361975 -8.82356222 -0.99110215 0 0 Z M-12 13 C-13.1577506 16.47325181 -13.06866652 19.36067448 -13 23 C-9.57068046 19.2440786 -8.43570917 14.76533255 -7 10 C-9.05362276 10 -10.51555198 11.74749698 -12 13 Z M0 13 C-1.98 17.455 -1.98 17.455 -4 22 C0.20180184 21.4260261 0.20180184 21.4260261 2 18 C1.6878236 15.35367713 1.6878236 15.35367713 1 13 C0.67 13 0.34 13 0 13 Z " fill="#010101" transform="translate(411,303)"/>
<path d="M0 0 C5.65211903 1.61489115 8.42176941 5.29446184 11.3125 10.25 C12.72999805 15.9199922 12.93400614 21.06014109 10.375 26.375 C7.02561758 30.07694899 4.48604424 32.63691157 -0.62109375 33.3828125 C-5.0772503 33.56420286 -8.27098271 33.32400768 -12.375 31.5 C-16.96935032 27.12442826 -20.24361451 22.89565851 -20.5625 16.375 C-20.28230389 11.97516378 -18.9528375 9.34136875 -16 6 C-12.25109423 3.03211627 -10.84230383 2 -6 2 C-5.34 3.32 -4.68 4.64 -4 6 C-2.68 4.02 -1.36 2.04 0 0 Z M-3 9 C-2.54917531 10.46067199 -2.08906463 11.91848032 -1.625 13.375 C-1.36976562 14.18710937 -1.11453125 14.99921875 -0.8515625 15.8359375 C-0.10145717 18.16459185 -0.10145717 18.16459185 2 20 C3.02214896 16.74770785 3.18671298 15.41076857 1.75 12.25 C0.12711879 9.73420616 0.12711879 9.73420616 -3 9 Z M-10 14 C-10.77802187 16.3015411 -10.77802187 16.3015411 -11 19 C-9.80453646 21.3450486 -9.80453646 21.3450486 -8 23 C-7.34 23 -6.68 23 -6 23 C-6.99 20.03 -7.98 17.06 -9 14 C-9.33 14 -9.66 14 -10 14 Z " fill="#010101" transform="translate(96,299)"/>
<path d="M0 0 C4.34724651 2.25794485 7.06133563 4.75375148 9.0625 9.31640625 C9.74662419 14.85287517 10.41981892 21.03381526 7.3125 25.94140625 C6.57 26.72515625 5.8275 27.50890625 5.0625 28.31640625 C4.505625 28.91453125 3.94875 29.51265625 3.375 30.12890625 C-0.16697546 31.94775851 -3.96592667 32.47000301 -7.9375 32.31640625 C-8.9275 31.65640625 -9.9175 30.99640625 -10.9375 30.31640625 C-11.02081771 27.38838394 -10.93991424 24.71678872 -10.6875 21.81640625 C-10.63464844 21.03136719 -10.58179688 20.24632812 -10.52734375 19.4375 C-10.09981766 13.64104156 -10.09981766 13.64104156 -8.9375 11.31640625 C-10.58320159 12.37270887 -10.58320159 12.37270887 -11.9375 14.31640625 C-12.1780583 17.62408289 -12.26958476 20.3478257 -11.1875 23.50390625 C-10.9375 25.31640625 -10.9375 25.31640625 -12.625 27.62890625 C-14.9375 29.31640625 -14.9375 29.31640625 -17 29.37890625 C-19.75713637 27.86692824 -20.54001195 26.11138235 -21.9375 23.31640625 C-22.80659883 16.98561774 -22.81441092 10.61485117 -18.9375 5.31640625 C-13.60922926 -0.01186449 -7.41494541 -2.61616017 0 0 Z M-1.9375 11.31640625 C-2.2675 14.61640625 -2.5975 17.91640625 -2.9375 21.31640625 C1.26886352 18.87789534 1.26886352 18.87789534 1.5 15.75390625 C1.355625 14.94953125 1.21125 14.14515625 1.0625 13.31640625 C0.0725 12.65640625 -0.9175 11.99640625 -1.9375 11.31640625 Z " fill="#010101" transform="translate(426.9375,241.68359375)"/>
<path d="M0 0 C1.25 2.0625 1.25 2.0625 2 4 C3.32 3.01 4.64 2.02 6 1 C8.85572721 1.98473352 9.97012206 2.9583843 11.75 5.4375 C13.85901352 11.44818854 13.89075631 17.32773106 11.875 23.375 C8.96666789 27.44666495 5.83965762 30.38678079 1 32 C-4.99476236 32.5877218 -9.06923063 31.26120863 -14 28 C-18.45247068 23.26027314 -18.34132638 18.17103038 -18.28125 11.953125 C-17.9028664 7.98009723 -16.73424953 5.8820468 -14 3 C-9.85829479 -0.07972951 -5.01653405 -2.24879112 0 0 Z M1 8 C1 11.96 1 15.92 1 20 C4.26859902 17.3453416 4.26859902 17.3453416 4.375 14 C4.26859902 10.6546584 4.26859902 10.6546584 1 8 Z M-8.5625 11.1875 C-10.19638668 12.95163275 -10.19638668 12.95163275 -10.4375 15.5 C-10.19474873 18.56705947 -10.19474873 18.56705947 -6 21 C-6 17.37 -6 13.74 -6 10 C-7.19439627 9.89915279 -7.19439627 9.89915279 -8.5625 11.1875 Z " fill="#010101" transform="translate(81,239)"/>
<path d="M0 0 C4.50503171 3.98119082 6.42661774 7.32055221 7.1875 13.3125 C6.86657866 18.6542875 4.87397705 23.08656288 1.1796875 26.953125 C-3.17384611 30.47644987 -7.722293 31.8648635 -13.3125 31.375 C-18.68140037 29.75294706 -22.20921318 27.09199596 -25.3125 22.375 C-27.20761424 18.58477151 -26.91771674 14.49399933 -26.3125 10.375 C-23.89563684 4.6226873 -20.26589838 0.31972437 -14.45703125 -2.1015625 C-9.15408168 -3.3959072 -4.81952909 -2.36429729 0 0 Z M-15.25 10.0625 C-16.6097698 13.02199899 -16.40411147 14.33408233 -15.3125 17.375 C-14.22916667 19.29166667 -14.22916667 19.29166667 -12.3125 20.375 C-9.16764075 20.76810741 -7.17968329 20.85055213 -4.375 19.3125 C-2.64584322 16.15933176 -3.4534301 13.74991745 -4.3125 10.375 C-8.1454121 7.81972527 -11.53348262 6.82553325 -15.25 10.0625 Z " fill="#010101" transform="translate(389.3125,345.625)"/>
<path d="M0 0 C2.6071001 9.49605998 2.17960102 20.2217221 2 30 C-0.41767658 31.20883829 -1.87010764 31.06741515 -4.5625 31 C-8.03806325 30.94491182 -11.25781507 31.13945756 -14.6875 31.6875 C-19.35007929 32.26516469 -21.93964233 31.35500745 -26 29 C-31.84815052 22.75727547 -31.23334679 11.93500173 -31.16796875 3.828125 C-31 2 -31 2 -30 1 C-28.31391034 0.92794489 -26.62499341 0.91613932 -24.9375 0.9375 C-24.01839844 0.94652344 -23.09929687 0.95554688 -22.15234375 0.96484375 C-21.44207031 0.97644531 -20.73179687 0.98804688 -20 1 C-19.91697632 1.85549438 -19.91697632 1.85549438 -19.83227539 2.72827148 C-19.58026257 5.29848753 -19.32147272 7.86797631 -19.0625 10.4375 C-18.97548828 11.33533203 -18.88847656 12.23316406 -18.79882812 13.15820312 C-18.71181641 14.01220703 -18.62480469 14.86621094 -18.53515625 15.74609375 C-18.456604 16.53685303 -18.37805176 17.3276123 -18.29711914 18.14233398 C-18.18448501 20.01103348 -18.18448501 20.01103348 -17 21 C-14.54207971 21.33343551 -14.54207971 21.33343551 -12 21 C-9.93276286 17.89914429 -9.75502577 17.27068319 -9.8046875 13.76953125 C-9.81113281 12.96708984 -9.81757813 12.16464844 -9.82421875 11.33789062 C-9.84097656 10.50451172 -9.85773438 9.67113281 -9.875 8.8125 C-9.88402344 7.96751953 -9.89304688 7.12253906 -9.90234375 6.25195312 C-9.92589297 4.16784757 -9.96176353 2.08388783 -10 0 C-2.25 -1.125 -2.25 -1.125 0 0 Z " fill="#010101" transform="translate(253,61)"/>
<path d="M0 0 C3.58260178 2.97279723 6.7687188 5.91846917 7.30078125 10.70703125 C7.34125892 21.43361281 7.34125892 21.43361281 4 26 C0.04009644 29.95990356 -3.12580643 31.87710206 -8.8125 32.25 C-12.87306094 32.18294487 -15.56188674 31.2660292 -19 29 C-22.51678933 25.28783349 -24.95620792 21.90000891 -25.03515625 16.671875 C-24.69047342 11.05606695 -23.67950799 7.43705375 -20 3 C-19.5875 2.4225 -19.175 1.845 -18.75 1.25 C-13.02190406 -2.8414971 -6.2685935 -2.56007444 0 0 Z M-13.8125 10.125 C-15.57002414 12.90003811 -15.46822746 14.78929745 -15 18 C-12.75944941 20.58525068 -11.3229668 20.95386189 -7.9375 21.4375 C-4.94970472 21.26201324 -4.94970472 21.26201324 -3.0625 19.3125 C-1.81129752 17.03582927 -1.81129752 17.03582927 -2.0625 14.4375 C-3.21535602 11.44007435 -4.17023542 10.49348686 -7 9 C-9.87933136 8.57863443 -11.328806 8.58339683 -13.8125 10.125 Z " fill="#010101" transform="translate(92,191)"/>
<path d="M0 0 C1.84111759 0.18411176 3.67390717 0.4516779 5.5 0.75 C7.24216797 1.03423828 7.24216797 1.03423828 9.01953125 1.32421875 C10.34646959 1.54879827 11.6732854 1.7741025 13 2 C13.74169434 2.12455566 14.48338867 2.24911133 15.24755859 2.37744141 C17.56176437 2.76743243 19.8748157 3.16359151 22.1875 3.5625 C23.30125 3.75247559 23.30125 3.75247559 24.4375 3.94628906 C29.76593236 4.88296618 29.76593236 4.88296618 32 6 C32.7734375 7.92578125 32.7734375 7.92578125 33.375 10.3125 C33.58898437 11.09238281 33.80296875 11.87226563 34.0234375 12.67578125 C34 15 34 15 32.32421875 17.08984375 C30.08579864 18.9294865 27.83457586 20.6229897 25.4375 22.25 C20.63675607 25.53359488 15.98192268 28.98205287 11.34765625 32.49609375 C9 34 9 34 6 34 C5.34 30.7 4.68 27.4 4 24 C8.42442592 20.28919117 13.17403931 17.15422267 18 14 C16.86820313 13.79503906 15.73640625 13.59007812 14.5703125 13.37890625 C13.08851239 13.10693028 11.60674315 12.83478613 10.125 12.5625 C9.37863281 12.42779297 8.63226563 12.29308594 7.86328125 12.15429688 C2.2265625 11.11328125 2.2265625 11.11328125 0 10 C-0.44921875 7.96875 -0.44921875 7.96875 -0.6875 5.5 C-0.77386719 4.6853125 -0.86023438 3.870625 -0.94921875 3.03125 C-0.96597656 2.3609375 -0.98273438 1.690625 -1 1 C-0.67 0.67 -0.34 0.34 0 0 Z " fill="#010101" transform="translate(65,272)"/>
<path d="M0 0 C-0.875 7.75 -0.875 7.75 -2 10 C-4.69797102 10.63860769 -7.33366623 11.16825242 -10.0625 11.625 C-10.82111328 11.7590625 -11.57972656 11.893125 -12.36132812 12.03125 C-14.23952258 12.36200122 -16.11960338 12.68200734 -18 13 C-15.20513866 15.87209412 -12.49486894 18.542737 -9.1875 20.8125 C-8.135625 21.534375 -7.08375 22.25625 -6 23 C-6.33 25.97 -6.66 28.94 -7 32 C-8.98 32.495 -8.98 32.495 -11 33 C-13.15625 31.6640625 -13.15625 31.6640625 -15.5 29.625 C-18.36294173 27.19661193 -21.21195803 24.80630268 -24.25 22.6015625 C-24.79076172 22.20888184 -25.33152344 21.81620117 -25.88867188 21.41162109 C-27.43408489 20.2975188 -28.98260066 19.18772427 -30.53125 18.078125 C-34.40980434 14.81326596 -34.40980434 14.81326596 -35 12 C-34.72765447 8.80415778 -34.00658637 6.52569642 -32 4 C-28.40627928 2.38352243 -24.76532198 1.96683864 -20.875 1.5 C-19.86695313 1.3453125 -18.85890625 1.190625 -17.8203125 1.03125 C-11.83329257 0.1626668 -6.04449024 -0.15079809 0 0 Z " fill="#010101" transform="translate(435,276)"/>
<path d="M0 0 C3.7836487 0.56556906 6.32898591 1.58994415 9.51171875 3.6953125 C10.7661377 4.51769409 10.7661377 4.51769409 12.04589844 5.35668945 C12.91762695 5.94023193 13.78935547 6.52377441 14.6875 7.125 C15.57856445 7.7130542 16.46962891 8.3011084 17.38769531 8.90698242 C23.32660481 12.84001709 29.22883019 16.82349553 35 21 C34.34820749 24.81583379 33.53101025 27.02881405 31 30 C27.34580582 29.34116129 24.73161431 27.76361096 21.60546875 25.796875 C20.56712891 25.14589844 19.52878906 24.49492187 18.45898438 23.82421875 C17.37939453 23.13972656 16.29980469 22.45523437 15.1875 21.75 C14.11951172 21.08097656 13.05152344 20.41195313 11.95117188 19.72265625 C6.51293662 16.29895588 1.17560787 12.80971992 -4 9 C-3.23596585 5.52846619 -1.91813089 3.00229182 0 0 Z " fill="#010101" transform="translate(383,328)"/>
<path d="M0 0 C4.34263862 -0.16702456 7.20960634 -0.12999997 11 2 C10.18931855 6.89421281 9.37123881 11.78711055 8.54638672 16.67895508 C8.26702276 18.34202844 7.98965591 20.0054386 7.71435547 21.66918945 C7.31747144 24.06553795 6.9133358 26.46056903 6.5078125 28.85546875 C6.3868924 29.5952446 6.26597229 30.33502045 6.14138794 31.09721375 C5.48049735 34.95518269 4.62307391 38.4322998 3 42 C0.03 41.67 -2.94 41.34 -6 41 C-7.28273533 36.50824296 -6.66250279 32.64171791 -5.8203125 28.14453125 C-5.68809296 27.40168381 -5.55587341 26.65883636 -5.41964722 25.89347839 C-5.1396763 24.33031259 -4.85533824 22.76792339 -4.56689453 21.20629883 C-4.12485025 18.8116888 -3.69605524 16.41499637 -3.26953125 14.01757812 C-2.99555831 12.49725748 -2.72084444 10.97707013 -2.4453125 9.45703125 C-2.25148483 8.38048027 -2.25148483 8.38048027 -2.05374146 7.28218079 C-1.11715107 2.23430213 -1.11715107 2.23430213 0 0 Z " fill="#010101" transform="translate(279,53)"/>
<path d="M0 0 C1.64574566 -0.02688151 3.29161413 -0.04634123 4.9375 -0.0625 C5.85402344 -0.07410156 6.77054687 -0.08570313 7.71484375 -0.09765625 C10 0 10 0 11 1 C10.97023771 2.92374365 10.86541943 4.84638981 10.73046875 6.765625 C10.64603516 7.96703125 10.56160156 9.1684375 10.47460938 10.40625 C10.33249023 12.30890625 10.33249023 12.30890625 10.1875 14.25 C10.10435547 15.47203125 10.02121094 16.6940625 9.93554688 17.953125 C9.34822285 26.04705031 8.36156196 34.00029849 7 42 C3.7 41.67 0.4 41.34 -3 41 C-3.23190382 31.81403196 -2.51791443 22.87454823 -1.5 13.75 C-1.35488607 12.40761494 -1.21035162 11.06516712 -1.06640625 9.72265625 C-0.71659917 6.48111066 -0.36103035 3.24031142 0 0 Z " fill="#010101" transform="translate(261,51)"/>
<path d="M0 0 C0.78674103 0.08782745 1.57348206 0.17565491 2.38406372 0.2661438 C4.05047277 0.45339214 5.7165551 0.64356752 7.38232422 0.83642578 C9.92734814 1.13073508 12.47327905 1.41575408 15.01953125 1.69921875 C16.63808305 1.88226317 18.2565748 2.06583958 19.875 2.25 C20.6355368 2.33547089 21.39607361 2.42094177 22.17965698 2.50900269 C25.57157114 2.9044238 28.74913417 3.42751792 32.0703125 4.2578125 C31.7403125 7.5578125 31.4103125 10.8578125 31.0703125 14.2578125 C21.03140436 13.78685138 11.01935643 13.14287436 1.0078125 12.2578125 C0.03827637 12.1748291 -0.93125977 12.0918457 -1.93017578 12.00634766 C-2.82849121 11.92433105 -3.72680664 11.84231445 -4.65234375 11.7578125 C-5.45422119 11.685625 -6.25609863 11.6134375 -7.08227539 11.5390625 C-8.9296875 11.2578125 -8.9296875 11.2578125 -9.9296875 10.2578125 C-10.00174261 8.57172284 -10.01354818 6.88280591 -9.9921875 5.1953125 C-9.98316406 4.27621094 -9.97414062 3.35710937 -9.96484375 2.41015625 C-9.95324219 1.69988281 -9.94164062 0.98960937 -9.9296875 0.2578125 C-6.74133842 -1.33636204 -3.44248972 -0.40305437 0 0 Z " fill="#010101" transform="translate(62.9296875,222.7421875)"/>
<path d="M0 0 C1.37352546 4.05621332 2.72037662 8.12079895 4.0625 12.1875 C4.64741211 13.91323242 4.64741211 13.91323242 5.24414062 15.67382812 C5.60830078 16.78564453 5.97246094 17.89746094 6.34765625 19.04296875 C6.68804932 20.06414795 7.02844238 21.08532715 7.37915039 22.13745117 C8.03617455 25.16678985 7.8379779 27.04452553 7 30 C5.7625 30.28875 4.525 30.5775 3.25 30.875 C0.93560127 31.44750916 -0.98725805 31.99362902 -3.125 33.0625 C-5.67198395 34.33599197 -8.1969205 34.61776189 -11 35 C-12.33691415 32.24752969 -13.01837615 30.39508723 -12.875 27.3125 C-12 25 -12 25 -10 24.0625 C-7.73954539 23.14464466 -7.73954539 23.14464466 -7.0625 20.5 C-6.98922012 16.39632685 -7.95474162 13.30784104 -9.30859375 9.46484375 C-10.03802976 6.86442498 -10.11973329 4.68681505 -10 2 C-6.38026598 0.68373308 -3.90432869 0 0 0 Z " fill="#010101" transform="translate(304,395)"/>
<path d="M0 0 C3.16115776 1.36983503 3.9927092 1.9890638 6 5 C5.66190588 7.56951533 5.02902545 9.90696578 4.2578125 12.37890625 C3.74277555 15.05672497 3.74277555 15.05672497 5.29296875 17.31640625 C5.91816406 18.05761719 6.54335937 18.79882812 7.1875 19.5625 C7.79980469 20.30628906 8.41210938 21.05007812 9.04296875 21.81640625 C10.96039524 23.95581025 12.9462412 25.99177909 15 28 C13.6190998 31.33717549 12.1798762 33.22301036 9 35 C5.6201319 34.58865703 4.00289367 33.36341366 1.6875 30.9375 C1.08679688 30.31101563 0.48609375 29.68453125 -0.1328125 29.0390625 C-2.61266514 26.3309389 -5.03406631 23.57803519 -7.41796875 20.78515625 C-9.07629841 18.84641558 -9.07629841 18.84641558 -11.5 16.75 C-13 15 -13 15 -13.0625 13 C-11.55812019 10.16822624 -9.64670083 8.76446722 -7 7 C-6.01 7 -5.02 7 -4 7 C-3.896875 6.401875 -3.79375 5.80375 -3.6875 5.1875 C-2.91123545 2.71756736 -1.92911079 1.67748765 0 0 Z " fill="#010101" transform="translate(128,105)"/>
<path d="M0 0 C1.875 1.125 1.875 1.125 3 3 C3.39831203 6.18649624 3.60548083 8.1220528 1.75 10.8125 C-0.31249474 12.21205 -1.49496229 12.85264484 -4 13 C-6.6875 11.875 -6.6875 11.875 -9 10 C-10.11703004 7.09572189 -10.2453571 5.67945043 -9.1875 2.75 C-6.83448071 -0.71760738 -3.9052 -0.31879184 0 0 Z " fill="#020202" transform="translate(270,403)"/>
<path d="M0 0 C1 1 1 1 1.25 4.375 C1 8 1 8 -0.0625 10 C-3.30524252 11.67367356 -5.58557075 10.97555121 -9 10 C-11.0625 7.75 -11.0625 7.75 -12 5 C-11.36326331 1.95781361 -10.65177629 0.53538767 -8.25 -1.4375 C-5.02813971 -2.24296507 -3.00169019 -1.2673803 0 0 Z " fill="#010101" transform="translate(167,107)"/>
</svg>
