<svg version="1.1" id="Layer_1" xmlns="http://www.w3.org/2000/svg" xmlns:xlink="http://www.w3.org/1999/xlink" x="0px" y="0px"
	 width="100%" viewBox="0 0 1024 1024" enable-background="new 0 0 1024 1024" xml:space="preserve">
<path fill="#000000" opacity="1.000000" stroke="none" 
	d="
M833.134216,467.997925 
	C833.134216,466.506165 833.134216,465.014404 833.134155,463.522644 
	C827.151672,461.555206 821.333984,453.054321 821.312012,445.805420 
	C821.305725,443.734589 821.010803,442.064240 819.974304,440.200104 
	C817.155823,435.131256 818.914978,430.462952 824.375977,427.497772 
	C826.292969,428.995453 826.163696,431.259003 826.868408,433.515564 
	C826.953186,428.876740 825.258362,423.693573 832.865417,421.752289 
	C832.207397,421.483551 831.549377,421.214844 830.891357,420.946106 
	C830.489868,420.704010 830.009155,420.176727 829.698792,420.262878 
	C825.454651,421.440552 821.517029,422.846069 816.844238,420.640503 
	C814.437744,419.504608 811.079163,425.480164 811.727478,429.472382 
	C811.913330,430.616486 812.513550,431.724152 812.539490,432.857300 
	C812.602295,435.602631 811.095398,437.830505 808.872498,438.975769 
	C806.399353,440.249939 805.245178,437.687286 804.422485,436.077423 
	C798.756470,424.990326 793.153320,413.867126 787.816162,402.619690 
	C786.882568,400.652069 787.167603,398.046234 787.119324,395.730377 
	C787.000793,390.039734 786.627197,384.418640 784.096069,379.175171 
	C783.097046,377.105560 783.263123,375.089844 783.983582,372.895355 
	C786.786926,364.357819 781.970581,358.575928 772.882385,359.423615 
	C767.851562,359.892822 763.912109,357.126251 759.953064,354.790405 
	C756.239868,352.599548 752.617676,351.547302 748.189270,351.672272 
	C740.498047,351.889252 735.299866,346.097046 729.187561,342.530853 
	C716.460327,335.105042 708.528809,322.386322 697.084045,313.544983 
	C695.796875,312.550629 694.885071,311.063599 693.824585,309.783966 
	C690.179321,305.385223 686.291809,301.391327 680.576416,299.594086 
	C673.025085,297.219635 667.405151,292.227295 664.139587,285.163727 
	C660.165894,276.568298 652.972046,272.900482 644.528320,270.605957 
	C642.925720,270.170502 641.612488,270.881500 640.182983,271.276123 
	C635.060913,272.690033 632.675537,271.587250 630.992615,266.576508 
	C629.690674,262.700073 627.007507,260.013611 623.930420,257.750824 
	C617.383606,252.936371 611.023804,247.714844 604.312317,243.318710 
	C588.370667,232.876617 571.426636,225.395264 551.243774,231.169678 
	C543.164429,233.481216 534.839355,234.542816 526.918152,237.987061 
	C518.634644,241.588837 509.635651,240.707809 500.914185,238.232361 
	C497.005646,237.122971 494.634216,234.386169 493.172729,230.954666 
	C489.129547,221.461304 483.100281,212.896210 480.135040,202.908401 
	C479.489838,200.735077 477.862732,199.283142 476.335388,197.735672 
	C471.191193,192.523621 466.091522,187.267624 460.970459,182.032700 
	C460.160339,181.204636 459.472412,180.069916 458.482666,179.634140 
	C450.132660,175.957779 451.771637,174.104889 445.541626,180.972305 
	C441.435455,185.498566 436.662262,185.489227 431.380920,183.575607 
	C424.994598,181.261612 419.180908,185.860184 419.589813,192.758224 
	C419.696198,194.552399 420.075195,196.541397 417.499176,197.076904 
	C414.926697,189.933640 406.946838,190.624832 403.669708,197.214584 
	C401.745728,195.629303 404.079620,192.243912 400.738586,191.199158 
	C399.746460,194.917923 397.078003,194.456055 393.717957,194.773422 
	C383.486206,195.739822 373.400879,194.372223 363.289459,193.926117 
	C351.985596,193.427414 341.441284,189.617966 331.992218,183.289886 
	C327.042145,179.974808 326.977844,173.914734 332.385681,171.701736 
	C339.389404,168.835709 343.557617,164.411255 346.678345,157.582352 
	C348.896179,152.729187 354.827393,153.095490 359.673157,153.505707 
	C364.302368,153.897644 368.829163,155.142746 373.550476,155.006302 
	C377.823700,154.882797 380.409607,152.553345 380.594818,148.719879 
	C380.783875,144.806915 380.953125,141.312042 384.748596,139.162109 
	C385.473663,140.364105 385.231537,142.394073 387.149536,143.927185 
	C386.865112,139.793213 385.162750,135.754562 388.467987,132.466583 
	C388.921906,132.015060 389.385864,130.904068 389.584351,130.963882 
	C393.810333,132.237411 396.787292,127.737343 400.772858,128.528214 
	C403.320038,129.033646 404.931091,128.491455 405.999146,125.479080 
	C398.050842,126.379959 390.940918,129.068573 383.613098,130.681625 
	C383.432831,130.304916 383.102264,129.872025 383.189056,129.758728 
	C389.299164,121.780426 394.978577,113.242516 406.011780,111.400314 
	C406.811951,111.266701 407.875122,111.098915 408.453156,111.487198 
	C416.243988,116.720322 424.117279,112.970688 431.975769,111.847061 
	C437.198761,111.100250 442.150513,111.001068 446.209747,115.526886 
	C448.307159,117.865372 451.303528,117.675369 452.923615,114.722145 
	C455.116882,110.724060 458.409027,109.750191 462.543427,110.008522 
	C465.290070,110.180138 466.899872,109.116333 466.989960,106.011002 
	C467.134918,101.014816 468.585114,100.186638 474.757843,101.119217 
	C479.332886,101.810402 481.372559,104.475670 480.160004,108.742012 
	C479.311676,111.726852 479.205017,114.354492 480.197876,117.446823 
	C480.935394,119.743973 481.613647,121.566010 483.582764,122.968346 
	C486.805573,125.263512 487.288635,128.383682 486.813965,132.224182 
	C486.233917,136.917603 486.435608,141.716141 488.935669,145.998734 
	C491.878479,145.386276 491.785156,143.363327 491.933319,141.605118 
	C492.184814,138.619873 492.323792,135.623596 492.445496,132.629318 
	C492.734680,125.517082 494.286560,123.677788 501.303162,122.721794 
	C506.557098,122.005959 511.926392,122.882332 517.165588,121.690506 
	C517.773743,121.552155 518.678467,121.571152 519.099487,121.926872 
	C525.894531,127.668526 530.528381,122.604698 535.629883,118.684906 
	C533.558472,113.102043 532.567200,107.553505 537.104187,101.966568 
	C542.330811,107.598740 548.002991,102.302582 553.444092,103.169380 
	C554.020508,103.261223 554.964539,102.376900 555.277161,102.597755 
	C561.715088,107.146408 571.062500,103.955856 576.731079,110.728241 
	C577.641968,111.816444 579.701477,111.943214 581.368774,112.566315 
	C582.945679,106.529274 587.559570,109.389877 590.974915,109.102745 
	C594.968506,108.766991 597.551086,110.978012 598.878174,114.663376 
	C601.066589,120.740547 603.204102,126.774811 607.692322,131.735794 
	C610.764282,135.131332 612.096619,139.472809 612.899597,144.002747 
	C613.565735,147.761017 614.498047,151.494095 615.620422,155.143661 
	C616.899109,159.301788 618.656433,159.683380 621.370850,156.517700 
	C624.351624,153.041382 627.669678,150.015762 629.726135,145.566025 
	C631.791260,141.097595 636.125061,137.711105 640.993469,136.181076 
	C651.533813,132.868515 661.489258,128.340744 671.085510,122.950287 
	C675.270203,120.599648 679.874146,119.940285 684.113953,121.698929 
	C693.242798,125.485580 702.694885,125.249985 712.164917,124.825020 
	C717.755310,124.574158 722.226318,126.039062 725.873962,130.378204 
	C729.577454,134.783783 734.358765,137.603745 739.641968,140.004105 
	C748.623718,144.084824 756.184265,150.499985 763.877319,156.573364 
	C765.756653,158.056992 767.373230,160.347076 768.203979,162.600632 
	C771.305481,171.014648 777.491638,177.589630 781.413818,185.498734 
	C783.053650,188.805542 785.582886,191.509659 788.578552,193.726715 
	C796.541382,199.619827 800.802246,207.798874 804.155334,216.961716 
	C808.636536,229.207397 815.738403,239.629761 828.754761,244.497238 
	C830.783142,245.255753 832.761230,246.227203 834.851868,246.726395 
	C842.791870,248.622284 848.584351,253.088577 852.325195,260.386353 
	C854.249939,264.141296 857.247192,267.000549 860.694397,269.499512 
	C865.584534,273.044464 865.524292,274.993652 860.686157,278.602356 
	C859.373535,279.581329 857.756958,280.148254 856.294495,280.931610 
	C848.707214,284.995422 843.356628,291.173706 839.559265,298.781250 
	C839.317505,299.265686 839.599121,300.011383 839.624695,300.429352 
	C841.063110,301.558777 842.066040,300.373810 843.167725,300.339050 
	C845.180908,300.275513 846.125549,301.356812 846.615173,303.225311 
	C847.059998,304.922821 846.804626,306.034424 845.121765,306.883698 
	C838.883789,310.031677 832.691223,313.269867 826.488647,316.487762 
	C825.512939,316.993958 824.573669,317.570465 823.970886,318.823303 
	C827.659546,317.053345 831.342224,315.270660 835.038574,313.516876 
	C839.074036,311.602173 841.587646,313.145111 841.153442,317.648590 
	C840.919922,320.070923 840.739563,321.869263 842.656433,323.908112 
	C844.316833,325.674255 842.812012,327.619324 840.994507,328.849609 
	C839.074646,330.149078 837.117004,331.392578 834.841309,333.010559 
	C834.017212,333.535583 833.527649,333.710632 832.703003,333.976746 
	C830.930420,334.698944 829.101318,334.875153 828.835266,337.372620 
	C834.393372,339.745819 840.016602,341.960480 846.029297,343.013306 
	C846.013306,343.002838 845.982117,342.980499 845.982117,342.980499 
	C848.211609,344.085083 850.469116,345.137543 852.661255,346.311829 
	C854.237671,347.156250 856.163086,347.937439 854.648804,350.744904 
	C850.669983,349.011749 846.295593,349.437866 842.111328,348.543945 
	C840.596741,348.220398 838.572083,347.947296 838.394348,349.838531 
	C837.966370,354.392273 834.008179,356.783020 832.433655,360.585999 
	C830.846191,364.420258 829.073120,368.177673 826.802124,373.266846 
	C830.079651,370.406891 829.986389,366.709412 832.844849,364.973785 
	C834.599670,367.080933 834.239685,369.222321 832.894836,370.976166 
	C830.589417,373.982697 830.893005,378.417694 827.186768,380.694702 
	C825.823975,381.531952 826.860291,383.268005 827.506409,384.316406 
	C829.161621,387.002045 830.547058,390.214783 832.944824,392.005798 
	C837.747009,395.592865 837.361389,400.181854 836.723267,404.997650 
	C836.019165,410.311035 837.359558,411.663513 842.846680,411.670746 
	C850.077148,411.680267 857.349243,413.104004 864.416687,410.153656 
	C865.766724,409.590088 867.778381,409.613251 868.911377,411.635376 
	C868.449585,414.696777 865.468933,413.338135 863.869141,414.278870 
	C861.851990,420.590637 861.440308,420.849579 855.951782,417.180298 
	C852.834717,415.096436 850.187134,417.998352 847.017212,417.409790 
	C849.188049,418.975891 850.328125,420.892303 850.076599,423.472961 
	C849.883301,425.456604 848.929932,426.511810 846.851379,426.422302 
	C845.220520,426.352112 843.539795,426.603027 843.992371,428.749786 
	C844.413818,430.748566 846.223267,432.289581 848.053772,431.419159 
	C852.565186,429.273834 855.600769,431.476288 857.930298,434.590363 
	C860.177734,437.594513 859.088806,440.835266 856.962708,443.796753 
	C855.215393,446.230469 856.261108,448.595276 857.843994,450.686981 
	C859.658508,453.084656 860.604614,455.715485 859.758301,458.631653 
	C858.578491,462.696625 860.677124,465.243927 863.833069,466.708496 
	C867.471985,468.397217 871.798462,469.413574 875.169189,466.591644 
	C880.004639,462.543549 885.789062,459.714142 889.796997,454.809662 
	C893.167480,456.350708 894.520508,458.487610 893.237061,462.082947 
	C892.692200,463.609344 892.736511,465.697083 894.804626,466.251678 
	C896.843201,466.798340 898.468384,465.438629 899.146118,463.676788 
	C899.909912,461.691132 900.792358,459.342560 900.396545,457.402100 
	C899.498230,452.998749 902.950073,449.607056 902.497009,445.341858 
	C902.221008,442.742493 905.573792,444.077759 906.699158,442.423950 
	C907.334473,439.870361 904.729980,436.708282 908.020752,434.076233 
	C910.250000,442.972748 904.439514,451.383301 906.982056,460.809998 
	C906.227722,463.786377 905.490906,465.981842 904.754089,468.177277 
	C901.973511,473.697235 898.301941,478.593842 894.004089,482.911621 
	C895.136780,485.503510 897.307129,486.214172 899.294373,486.766815 
	C902.621155,487.691925 904.731873,489.630707 904.676880,493.027405 
	C904.619080,496.596954 902.805664,499.466675 899.304565,500.732758 
	C896.854919,501.618591 894.252563,502.082397 892.012634,502.658966 
	C891.106934,504.310425 891.749512,505.392670 892.480164,506.252716 
	C897.234985,511.849213 898.576904,519.101196 901.759399,525.460022 
	C903.871948,529.680908 904.006714,534.501404 901.648315,538.971741 
	C897.478638,546.875305 894.975403,555.274414 894.061829,564.153870 
	C893.797668,566.721313 893.757568,569.479797 889.050171,567.756470 
	C891.395813,572.544800 894.467285,576.453674 891.998901,581.442444 
	C890.282959,581.617371 891.192566,579.482605 889.696228,579.039001 
	C888.131409,581.965698 887.216064,585.827393 882.831299,586.375244 
	C885.545654,587.525208 887.721985,586.620239 889.602539,584.515381 
	C890.486328,586.962097 889.504089,588.394958 888.024841,589.228516 
	C880.823120,593.286560 880.528259,601.160217 878.421997,607.664795 
	C876.517395,613.546875 876.925415,614.065857 871.462952,610.214661 
	C871.198547,610.028259 870.864685,609.940430 870.270264,609.676758 
	C871.187317,612.799622 875.326172,613.149597 875.621094,616.675476 
	C875.197449,617.018433 874.757446,617.493530 874.218689,617.787964 
	C872.740662,618.595764 870.095093,617.255737 869.674011,619.845520 
	C869.286560,622.228760 871.724304,622.438049 873.127686,623.488831 
	C875.634460,625.365601 874.191528,627.603943 873.519165,629.572754 
	C871.680786,631.050903 870.768005,628.691956 869.324463,628.903992 
	C868.879150,630.148193 870.776550,630.778625 869.924194,632.426941 
	C866.799988,632.711426 864.898804,635.107117 863.404053,637.939697 
	C859.365601,637.195984 857.650818,633.413696 853.714905,631.166870 
	C855.674866,634.641174 858.027588,636.484680 859.529358,639.058777 
	C863.228333,645.399109 864.303162,651.890930 863.322388,659.183655 
	C861.863281,670.033264 855.923340,677.768372 846.986450,682.949158 
	C836.414246,689.078125 835.879761,688.934875 830.484375,699.896912 
	C826.059753,698.789062 822.971436,694.729065 817.957397,693.754944 
	C820.687195,695.852783 823.067810,697.618225 825.370483,699.480042 
	C826.452271,700.354675 828.531860,700.600891 828.104919,702.581055 
	C827.676819,704.566345 825.854675,704.774231 824.145874,704.944519 
	C823.179626,705.040771 822.221924,705.222534 821.436646,705.339539 
	C818.788086,709.815552 825.100952,711.827148 824.010437,716.041626 
	C820.296936,716.122864 817.785828,713.145081 813.390991,712.398010 
	C817.471313,715.765503 822.184265,717.152588 823.146667,721.860962 
	C821.589844,723.896423 819.204102,722.406494 817.615356,724.317261 
	C818.603821,727.522705 819.251892,731.096252 815.829895,733.828125 
	C813.898254,735.370422 813.094910,732.503784 811.413147,732.670044 
	C810.603699,735.311890 810.435608,738.309631 811.343750,740.519653 
	C814.218384,747.515686 810.184875,752.953552 808.019165,758.811096 
	C807.150391,761.160950 806.067749,763.413940 805.897949,765.949524 
	C805.290649,775.018127 799.978027,781.222046 793.403625,786.717041 
	C786.282410,792.669189 780.442261,799.621216 777.382507,808.541260 
	C776.274109,811.772522 773.848938,813.619934 771.323059,815.588867 
	C767.499573,818.569397 763.658752,821.631409 763.955444,827.305237 
	C764.127808,830.600952 765.436462,832.677795 768.960571,832.948608 
	C779.986511,833.796082 785.834290,840.539001 788.875488,850.479492 
	C794.005310,867.246582 787.563599,885.600464 772.962219,896.025696 
	C766.935974,900.328369 760.590942,903.741760 753.218811,905.267883 
	C744.365662,907.100586 736.133423,910.889221 727.840881,914.345154 
	C716.207764,919.193298 705.369995,916.147644 695.294250,910.620972 
	C685.806152,905.416748 683.823120,892.483643 690.161560,883.999817 
	C693.834167,879.084045 693.471741,876.721924 688.217285,873.516113 
	C683.671143,870.742432 679.123840,868.012085 674.757019,864.929749 
	C670.490906,861.918213 665.013123,861.811340 660.092590,860.560730 
	C657.285034,859.847107 654.324890,859.609436 651.533081,858.449646 
	C645.017822,855.742859 643.564148,856.420654 641.130066,862.831055 
	C640.899841,863.437439 640.612305,864.022095 640.386536,864.536438 
	C638.532776,864.985046 639.827454,862.178162 637.732117,862.748352 
	C637.440430,866.021057 638.028503,870.160522 633.256165,871.186951 
	C630.093079,871.867249 626.892090,872.371765 623.867737,873.694031 
	C626.188171,870.684875 624.395325,869.225281 622.165466,867.440491 
	C618.651306,870.279358 617.542358,876.844238 610.641602,874.667542 
	C610.783142,870.664124 611.959412,866.232666 609.170410,861.412109 
	C606.484741,865.124084 599.781982,861.965271 598.945435,868.767700 
	C596.776062,866.231750 597.368713,863.799133 598.862305,861.400635 
	C600.357910,858.998901 601.888550,856.616821 603.477295,854.276001 
	C605.297485,851.594238 605.537842,849.050598 603.066711,846.631165 
	C601.818604,845.409302 601.506958,843.782349 600.919495,842.218445 
	C598.483582,835.733704 602.214539,829.256958 600.809265,822.769836 
	C600.604919,821.826355 601.375183,820.458801 602.060547,819.569702 
	C606.861572,813.341370 613.184875,808.856445 619.718750,804.682861 
	C620.707092,804.051575 622.636963,803.794434 623.555298,804.337708 
	C628.335327,807.166138 631.802795,804.807373 635.126526,801.784058 
	C640.763184,796.656921 648.379456,795.061279 654.508972,790.797668 
	C656.431396,789.460449 658.274414,788.118103 659.960083,786.477966 
	C665.563171,781.025818 671.792358,778.155396 679.758667,781.452515 
	C683.563171,783.027161 689.704590,778.991211 691.648865,773.753845 
	C693.121765,769.786072 694.317627,765.670044 689.700012,762.600403 
	C685.902954,760.076355 682.078796,760.601501 678.040833,764.422058 
	C677.194214,765.223083 676.365112,766.049316 675.593445,766.921875 
	C671.456055,771.600708 668.866272,772.102783 664.729919,768.988892 
	C659.825562,765.296570 659.256897,762.297485 662.604004,757.039368 
	C668.978333,747.025574 677.268005,741.218689 689.812378,744.665955 
	C694.976929,746.085266 699.068604,744.557007 701.375671,739.556641 
	C702.659546,736.774048 704.453979,735.142029 707.533508,734.374451 
	C710.347473,733.673035 712.095154,731.677429 711.049500,728.329346 
	C708.183167,719.152039 712.094788,707.107056 720.239746,701.716125 
	C724.157471,699.123169 727.111633,696.640442 726.466431,691.444580 
	C726.247864,689.684204 727.763062,688.366882 729.167358,687.472351 
	C733.688171,684.592468 738.431824,682.151672 743.871582,681.578613 
	C748.222168,681.120361 750.157776,683.767944 748.264221,687.728027 
	C747.417908,689.498047 746.064453,691.048706 744.816040,692.598083 
	C742.901978,694.973633 741.335205,697.481628 741.037415,700.600830 
	C740.450989,706.743591 741.656250,707.584473 747.776184,708.541321 
	C752.695190,709.310486 757.264221,709.664429 761.850586,707.440063 
	C764.543701,706.134033 766.164612,704.552551 765.320435,701.218140 
	C764.545044,698.155151 764.667542,695.203430 768.138794,693.552734 
	C768.699890,693.285828 769.268188,692.725769 769.519714,692.161438 
	C774.092651,681.904053 782.443420,674.674194 789.758667,666.585815 
	C793.567627,662.374390 794.099060,656.546082 795.848450,651.391602 
	C798.453735,643.715576 803.222046,637.369019 808.106934,631.290588 
	C810.982361,627.712524 813.758850,623.929749 816.984436,620.570129 
	C818.647156,618.838440 819.284485,616.472229 818.634338,614.038574 
	C817.822327,610.999634 817.848022,608.335083 819.916931,605.572388 
	C821.375000,603.625366 820.711670,601.372437 818.111938,600.363770 
	C816.519714,599.746094 815.754761,598.458069 816.878357,597.316772 
	C820.952576,593.178223 819.681641,587.708069 820.714661,582.859314 
	C821.869812,577.437378 824.200256,572.917297 828.446106,569.381226 
	C829.076782,568.856018 830.357788,568.205139 830.276672,567.866333 
	C828.863098,561.959595 832.954224,556.123840 830.785950,550.418091 
	C829.234070,546.334473 829.415710,542.719482 831.037842,538.884277 
	C832.550171,535.308899 832.954712,532.003662 829.544434,528.940002 
	C827.164185,526.801819 826.897278,519.559692 829.397766,517.343201 
	C833.105225,514.056702 835.274902,509.617340 839.414673,506.448975 
	C843.508850,503.315491 846.547974,498.476837 850.693542,494.906677 
	C852.778625,493.110931 850.367737,491.397369 849.242493,489.838165 
	C848.784668,489.203827 848.542419,488.413879 847.632324,486.491272 
	C852.180054,489.153442 855.522644,489.907806 858.489075,485.776398 
	C859.584595,484.250793 861.864014,485.784973 863.561279,486.485352 
	C865.339294,487.219086 867.664429,488.600891 868.555054,485.716949 
	C869.351196,483.138489 867.789185,480.658447 865.203857,480.526978 
	C854.618042,479.988861 851.027710,471.194550 845.596497,464.539032 
	C844.186462,462.811188 843.453796,459.695557 840.582153,460.501190 
	C837.416443,461.389313 838.229187,464.403076 838.400574,466.876373 
	C838.455017,467.663422 838.289368,468.465698 838.238098,469.093750 
	C836.428040,470.184784 835.559265,468.737793 833.945068,468.106110 
	C833.466980,467.978607 833.134216,467.997925 833.134216,467.997925 
M641.222961,841.647461 
	C642.798157,845.925171 645.973450,848.724915 649.906189,850.831421 
	C646.932007,847.555969 643.957886,844.280518 640.830017,840.298767 
	C640.064148,838.639282 639.533630,836.803589 638.462341,835.372803 
	C637.502136,834.090515 635.847229,832.987000 634.320618,834.698792 
	C633.400391,835.730530 631.677002,836.848511 632.572998,838.502991 
	C633.794189,840.758057 635.352600,839.165771 636.776489,838.455933 
	C637.192322,838.248657 637.706299,838.238159 638.266968,838.117798 
	C639.194824,839.082031 640.105652,840.028564 641.222961,841.647461 
M500.483521,128.822739 
	C497.334839,129.800446 497.102539,130.031418 498.664978,131.602936 
	C500.764008,133.714081 500.678925,136.283447 501.006622,138.838013 
	C501.335938,141.405350 500.631714,144.071716 502.039795,147.703018 
	C503.179657,142.480133 501.867065,138.087463 502.862793,134.129303 
	C503.559357,131.360336 502.355438,130.400528 501.847992,128.993881 
	C507.088531,128.589691 512.264038,127.496567 517.505554,127.935516 
	C518.135071,124.831810 516.648193,123.722221 514.721008,125.195595 
	C511.879791,127.367813 508.837372,126.969864 505.761871,127.185097 
	C503.999481,127.308441 502.007904,126.891823 500.483521,128.822739 
M735.310974,841.476807 
	C731.332581,842.252380 728.266418,844.503418 726.021667,847.733887 
	C723.973938,850.681030 725.265808,853.987915 728.661438,853.835632 
	C738.464661,853.396118 748.449951,853.029358 755.711792,844.796326 
	C756.809753,843.551453 758.261597,842.308899 757.374573,840.468140 
	C756.480591,838.612915 754.529846,838.921509 752.933105,839.108215 
	C747.321106,839.764648 741.726196,840.567322 735.310974,841.476807 
M458.362030,140.750443 
	C458.459167,140.885300 458.532593,141.052872 458.660339,141.145462 
	C458.778809,141.231277 459.019501,141.322723 459.096680,141.265030 
	C460.262299,140.393356 459.497894,139.158325 459.663757,138.094254 
	C459.976959,136.085007 458.743317,133.223557 461.378113,132.415802 
	C463.872437,131.651108 464.798340,134.516830 466.262207,135.980927 
	C467.050720,136.769562 467.462708,138.056366 468.571228,137.954681 
	C472.514923,137.050568 471.194519,132.756088 473.965729,130.500732 
	C474.552887,134.709702 473.258209,138.684906 475.315674,142.375549 
	C476.592072,140.690948 475.310822,138.741287 477.252533,136.753235 
	C477.252533,140.256943 477.252533,142.998810 477.252533,145.740677 
	C477.942719,144.025970 478.043396,142.376846 478.214264,140.735031 
	C478.386017,139.084808 478.817749,137.440277 478.803986,135.796021 
	C478.757996,130.302643 475.756439,127.867599 470.574829,129.135422 
	C467.828094,129.807495 465.123352,130.452881 462.256195,130.277679 
	C459.622986,130.116791 458.207581,131.438171 458.202820,134.134155 
	C458.199280,136.127075 458.208496,138.120010 458.362030,140.750443 
M423.898956,121.315750 
	C426.489594,120.183311 428.610748,120.252266 430.216888,123.096344 
	C432.206696,126.619827 434.478851,126.454994 436.511017,123.049606 
	C437.717468,121.027893 439.653320,120.455101 441.773743,120.189415 
	C442.143524,117.193253 440.427917,116.299484 437.964050,116.057487 
	C435.807251,115.845642 425.576111,119.471008 423.898956,121.315750 
M459.532043,168.316879 
	C462.931396,174.081299 463.125702,181.996964 471.609589,185.648926 
	C458.374115,174.306030 462.679382,159.056839 459.701782,145.727859 
	C459.317810,147.798004 459.210114,149.860443 459.338898,151.908020 
	C459.669922,157.171661 461.095642,162.404037 459.532043,168.316879 
M823.277222,298.835876 
	C822.974365,305.602997 822.131958,306.608582 816.267883,306.941193 
	C816.852783,307.476532 817.436462,307.826996 817.760254,308.341187 
	C818.794312,309.982758 819.443970,312.299225 822.053223,311.507812 
	C824.353821,310.809998 824.516785,308.508636 824.583313,306.611145 
	C824.749390,301.874756 824.638000,297.128662 824.638000,292.386444 
	C824.417908,292.375977 824.197876,292.365479 823.977783,292.355011 
	C823.752563,294.247986 823.527405,296.140961 823.277222,298.835876 
M820.554626,646.826477 
	C819.821899,648.053467 818.659058,649.091003 818.784546,650.621948 
	C821.378784,653.298462 824.482849,652.565979 825.809875,650.224976 
	C826.709290,648.638489 829.121216,645.626831 827.050598,643.883789 
	C824.658691,641.870361 822.684265,644.561707 820.554626,646.826477 
M836.417908,661.815918 
	C835.610596,664.541626 833.471436,666.834900 833.674866,669.903564 
	C834.954590,667.775391 835.511108,665.237976 836.921509,663.332764 
	C839.579468,659.742249 839.327820,653.224854 846.457214,654.069397 
	C846.136902,651.136902 841.927673,649.599365 844.097534,646.256958 
	C841.623230,651.208801 839.148987,656.160706 836.417908,661.815918 
M587.102722,151.504807 
	C588.010071,149.339325 591.735046,147.382889 587.285645,144.651810 
	C585.758728,153.680496 584.255493,162.569107 582.576904,172.494629 
	C585.132202,170.010666 587.218567,168.894577 586.564819,165.925369 
	C585.560669,161.365036 586.009888,156.752594 587.102722,151.504807 
M713.338623,239.948318 
	C709.572388,240.998199 709.716003,237.900696 708.997925,235.556488 
	C708.076294,239.930008 707.887268,244.224152 705.651550,248.016434 
	C707.690430,248.669357 709.150513,247.665543 710.687012,247.461288 
	C711.016724,248.321686 711.306335,249.077423 711.833374,250.452957 
	C712.247803,246.595673 711.318298,243.310577 713.338623,239.948318 
M628.058838,868.370239 
	C634.235596,866.055603 629.848328,862.372437 629.597656,859.131165 
	C626.525024,858.802734 624.672180,860.011292 624.239685,862.630188 
	C623.819031,865.177124 624.283813,867.620361 628.058838,868.370239 
M851.610046,521.291992 
	C850.532043,523.405090 848.701721,525.302551 849.601624,528.107910 
	C858.983032,528.746765 852.102539,520.479431 855.259766,517.756836 
	C854.181702,518.756287 853.103638,519.755737 851.610046,521.291992 
M533.216553,166.727051 
	C531.546509,173.280792 532.791809,180.072098 530.952576,186.612061 
	C531.401733,186.651291 531.850830,186.690521 532.299988,186.729752 
	C533.057068,178.588242 533.814148,170.446732 534.671326,161.228668 
	C532.814880,163.334412 533.425049,164.704773 533.216553,166.727051 
M794.521973,370.718414 
	C799.364075,372.446716 799.018555,367.919952 800.441284,365.671173 
	C801.064209,364.686523 800.815369,363.019409 799.448425,362.870667 
	C796.425598,362.541718 796.035767,365.391937 794.987610,367.286285 
	C794.537048,368.100586 794.512329,369.150513 794.521973,370.718414 
M810.400513,383.237885 
	C805.020386,375.298248 811.529602,368.708923 813.197815,361.562012 
	C811.481384,364.309509 810.446045,367.314728 808.730469,369.861755 
	C805.305054,374.947296 806.255432,379.338074 810.400513,383.237885 
M892.363892,517.464539 
	C894.510437,522.701599 895.161072,528.215271 895.222595,533.837891 
	C897.158386,524.070007 894.841064,515.556335 888.534241,509.817017 
	C889.870667,512.448425 890.966064,514.605347 892.363892,517.464539 
M590.121277,118.664177 
	C592.289856,122.002815 590.654297,125.519730 590.376709,129.114807 
	C593.466919,125.616791 592.582214,121.504623 592.815063,117.654785 
	C592.905579,116.159325 593.320068,113.604210 591.091736,113.720963 
	C588.342651,113.864990 589.423340,116.260811 590.121277,118.664177 
M621.742065,186.575623 
	C622.333130,185.674667 623.660522,185.313538 623.720642,183.449234 
	C620.320374,186.577103 617.164368,189.387634 614.124329,192.318390 
	C612.733215,193.659531 612.807617,195.437057 613.952820,196.825287 
	C615.576477,198.793549 617.481567,200.529617 619.266418,202.364914 
	C614.006348,194.066360 614.006348,194.066360 621.742065,186.575623 
M802.957520,283.965210 
	C802.723694,284.055969 802.489807,284.146759 802.255981,284.237549 
	C802.319153,284.387878 802.344360,284.575897 802.450867,284.683075 
	C806.470459,288.726501 808.490906,293.241852 806.529724,299.076324 
	C805.788696,301.280792 807.205811,302.637939 810.034119,303.222321 
	C808.272522,301.703552 807.449463,300.410645 807.980347,298.558411 
	C809.639221,292.771057 807.414612,288.206238 802.957520,283.965210 
M443.787659,153.440155 
	C443.778412,155.747208 440.736572,157.415604 442.333344,160.394470 
	C445.451630,159.322739 447.326965,157.696060 446.391205,154.260849 
	C445.816589,152.151443 445.037292,150.086731 441.666656,150.889999 
	C442.624786,151.802902 443.201965,152.352844 443.787659,153.440155 
M729.153015,822.982971 
	C729.589050,822.600220 730.567627,823.030212 730.612122,821.867371 
	C723.522034,823.284363 716.900391,821.592896 710.391541,819.015991 
	C716.058228,822.235779 721.971680,824.330566 729.153015,822.982971 
M816.904358,669.062805 
	C819.453918,668.300110 819.453918,668.300110 821.302002,669.875977 
	C822.027161,668.386719 822.724854,666.953979 824.076355,664.178345 
	C819.882996,667.904663 821.377197,663.437927 820.059814,663.210144 
	C818.586609,664.609924 817.160461,665.952637 815.748779,667.310425 
	C814.632996,668.383728 815.605347,668.630127 816.904358,669.062805 
M568.986206,150.187668 
	C568.958862,149.234756 569.785889,148.298309 568.639893,146.760529 
	C567.062195,155.420502 565.572449,163.597412 564.082764,171.774323 
	C564.321899,171.818512 564.560974,171.862701 564.800110,171.906891 
	C566.168457,164.912216 567.536865,157.917542 568.986206,150.187668 
M697.955566,835.003540 
	C696.634094,838.338013 694.971130,841.496338 693.224915,844.548828 
	C699.408936,837.904724 700.864807,829.916931 699.542786,820.000916 
	C698.706848,825.477966 700.101685,830.022583 697.955566,835.003540 
M549.903809,185.036636 
	C550.099609,188.446320 547.763123,189.083496 545.177002,189.451111 
	C549.037292,190.062134 551.567749,189.411423 550.807983,184.444107 
	C550.416138,181.882156 550.719849,179.225616 551.252136,176.583572 
	C551.853271,173.599838 551.822815,170.488876 552.067078,167.433243 
	C551.819763,167.428513 551.572449,167.423782 551.325134,167.419052 
	C550.862671,172.999451 550.400208,178.579849 549.903809,185.036636 
M818.571411,391.439301 
	C816.372620,393.943634 815.485779,390.135834 813.487732,390.366760 
	C814.117493,392.382751 814.640747,394.528809 816.982178,394.554260 
	C819.130920,394.577606 819.636780,392.318604 820.286194,390.717438 
	C821.371765,388.041046 822.194214,385.257996 823.586609,381.172516 
	C820.736389,384.917664 820.350220,388.130035 818.571411,391.439301 
M883.518677,468.902222 
	C886.617920,467.404175 888.616028,465.026337 889.297852,461.523651 
	C885.646301,465.706665 881.926331,469.743469 874.769531,470.576324 
	C879.329956,473.417297 880.800232,470.173431 883.518677,468.902222 
M879.850281,526.221802 
	C880.629272,529.540527 880.374390,532.858948 879.449646,537.027039 
	C883.094116,529.241821 881.731628,522.621155 876.021851,518.886047 
	C877.555115,521.135498 879.588745,522.775085 879.850281,526.221802 
M673.550842,836.887207 
	C678.428223,836.783203 678.784302,833.097229 679.600403,829.792603 
	C677.099487,830.790955 673.702698,831.147583 675.530457,835.252319 
	C675.850159,835.970459 674.386414,836.169373 673.550842,836.887207 
M556.818115,113.669708 
	C556.724365,111.630486 557.681580,109.148026 554.848267,108.178177 
	C553.212891,107.618370 551.276184,106.710022 550.400696,109.567940 
	C551.946716,111.742317 555.151062,111.734230 556.818115,113.669708 
M857.722656,528.993042 
	C857.959473,534.247986 858.196289,539.502930 858.433044,544.757812 
	C858.962463,537.204590 858.910583,529.638611 859.657471,522.110352 
	C859.069214,524.147217 858.480957,526.184143 857.722656,528.993042 
M835.359192,545.342712 
	C835.772278,546.027344 836.070862,547.023621 837.061523,546.825684 
	C838.044617,546.629150 838.504456,545.449341 837.855164,544.922729 
	C833.385010,541.296814 835.591553,535.493469 833.205933,530.514160 
	C832.345886,535.931030 833.827271,540.306458 835.359192,545.342712 
M771.694580,709.258972 
	C778.990295,707.571899 786.256653,706.909180 793.412842,710.164185 
	C786.398132,706.662170 779.245605,706.122681 771.694580,709.258972 
M558.939209,135.282791 
	C557.516235,137.869522 557.769409,140.349915 559.165894,143.064224 
	C562.559753,138.629944 562.568909,137.793427 558.939209,135.282791 
M692.957153,791.527283 
	C692.961487,795.812988 693.766663,799.897034 696.026611,803.644531 
	C693.882019,797.200500 693.167175,790.628723 694.223938,783.856812 
	C692.501404,785.998352 693.145996,788.373474 692.957153,791.527283 
M792.872559,747.108459 
	C792.951050,747.242249 793.011536,747.466919 793.112671,747.486938 
	C793.241150,747.512512 793.476257,747.412415 793.539185,747.297424 
	C796.454285,741.966980 795.266663,734.820679 790.401123,731.155884 
	C794.316040,736.209106 794.900574,741.242676 792.872559,747.108459 
M862.217529,493.717072 
	C860.555786,493.428864 859.353760,494.103485 859.988647,495.780487 
	C861.006653,498.469330 863.527527,498.071899 865.800842,498.204559 
	C866.139343,495.575653 865.227600,494.175964 862.217529,493.717072 
M410.275330,158.245682 
	C415.728302,161.872833 419.445587,156.572861 424.088501,156.056076 
	C419.301086,155.740814 415.192596,159.663376 410.275330,158.245682 
M632.956543,155.409393 
	C634.068481,153.042221 635.180481,150.675034 636.292419,148.307846 
	C632.148865,151.039886 631.271606,155.125275 631.153992,159.533432 
	C631.654175,158.362518 632.154358,157.191605 632.956543,155.409393 
M693.809753,163.126297 
	C695.034790,160.444931 695.124939,158.035095 690.970764,155.619247 
	C695.076355,160.428864 690.307556,162.172714 688.902588,165.779861 
	C690.692993,164.216156 692.068848,163.788696 693.809753,163.126297 
M710.002136,207.394272 
	C706.285156,211.151764 704.770996,216.244919 701.773804,220.439758 
	C705.642273,216.876984 707.713806,212.172440 710.002136,207.394272 
M740.880127,229.738327 
	C742.321594,226.184875 739.153198,224.734634 737.360413,222.621216 
	C739.743774,224.546646 735.215942,229.038803 740.880127,229.738327 
M851.776611,547.294617 
	C851.350464,547.908386 850.924255,548.522095 850.017822,549.827271 
	C853.095581,548.545410 855.925964,548.447998 856.971191,543.904907 
	C853.460693,548.093201 854.451721,542.571167 852.346741,543.406982 
	C852.248657,544.507263 852.148621,545.629395 851.776611,547.294617 
M894.140930,540.253296 
	C894.206177,539.775757 894.350586,539.186646 893.562256,539.783020 
	C893.444397,539.872131 893.397461,540.068115 893.340637,540.223022 
	C891.577881,545.032410 888.822754,549.237305 885.389465,553.035339 
	C890.112366,550.209961 892.269897,545.634460 894.140930,540.253296 
M549.694092,157.401886 
	C549.885437,159.448090 552.531555,160.185989 552.661377,162.425430 
	C552.661377,159.398102 552.661377,156.370758 552.661377,153.160614 
	C551.663330,154.517029 550.791016,155.702499 549.694092,157.401886 
M788.691650,339.969757 
	C787.310730,338.447174 789.510315,337.076996 788.875366,335.652863 
	C785.896179,340.018188 788.611816,343.217072 791.565552,346.291901 
	C790.694336,344.392487 789.823059,342.493073 788.691650,339.969757 
M887.830078,487.438873 
	C884.000427,488.524902 880.170837,489.610931 876.341248,490.696991 
	C880.634033,491.304932 884.184937,489.716492 887.830078,487.438873 
M747.897461,234.529968 
	C748.926880,234.465424 750.030640,235.199432 751.037598,234.311874 
	C749.191772,232.572952 748.252930,229.403748 744.667847,230.699890 
	C745.583496,231.958359 746.448242,233.146912 747.897461,234.529968 
M715.832336,778.048218 
	C712.276245,781.215210 710.361694,785.010681 711.352722,789.934326 
	C711.209412,784.573486 714.577698,780.895630 718.633240,776.078247 
	C717.004578,777.158569 716.615173,777.416870 715.832336,778.048218 
M739.822693,280.952332 
	C741.585876,283.011688 744.420837,284.315063 744.691162,287.407990 
	C745.127441,282.196228 740.014893,281.218994 737.343811,278.388885 
	C738.018677,279.097595 738.693604,279.806274 739.822693,280.952332 
M505.707977,184.698517 
	C505.593628,183.766891 505.936096,182.695145 504.543549,181.808517 
	C503.361328,182.769379 502.085754,183.806122 500.734253,184.904556 
	C502.590271,186.291183 504.090881,187.432480 505.707977,184.698517 
M648.103027,822.645813 
	C647.024231,822.942200 645.945374,823.238586 644.916626,823.521179 
	C645.643555,824.728943 646.366394,825.929871 647.108032,827.162048 
	C649.533325,824.973450 649.533325,824.973450 648.103027,822.645813 
M666.266907,841.231506 
	C665.801331,841.312073 665.335693,841.392639 664.715942,841.499878 
	C669.388123,843.530762 672.496582,843.064270 676.769104,839.527283 
	C673.328613,841.092468 670.228455,842.004211 666.266907,841.231506 
M675.946472,161.785492 
	C675.601562,161.606354 675.243408,161.013870 674.928528,161.793716 
	C674.889160,161.891235 675.032776,162.112350 675.146729,162.214844 
	C678.069763,164.844421 681.000244,167.465836 683.929382,170.088669 
	C684.138794,169.885147 684.348267,169.681625 684.557678,169.478088 
	C681.814941,167.030273 679.072205,164.582458 675.946472,161.785492 
M496.428589,171.232910 
	C494.049835,172.981491 491.023804,172.859756 488.462830,174.070541 
	C491.756378,174.391266 495.027344,174.642029 496.428589,171.232910 
M851.480469,460.077881 
	C850.950439,458.019623 849.272949,458.230774 847.243164,457.819885 
	C847.966370,460.235992 848.382751,462.213043 850.183289,463.996063 
	C850.652100,462.662689 851.009888,461.645050 851.480469,460.077881 
M686.843933,150.668365 
	C684.150818,148.063080 681.067932,146.086731 677.427307,144.985886 
	C680.678528,147.313858 683.929749,149.641830 687.180908,151.969803 
	C687.285889,151.779160 687.442810,151.596573 687.474182,151.394485 
	C687.490295,151.290863 687.282043,151.152374 686.843933,150.668365 
M746.983643,210.848846 
	C744.652893,210.303818 742.226501,209.272812 740.485046,211.999268 
	C743.439331,211.019455 746.299866,212.017212 749.237305,212.053802 
	C748.676208,211.741180 748.115173,211.428543 746.983643,210.848846 
M624.515320,815.481140 
	C623.844177,814.356567 623.115906,813.333679 621.196533,813.803223 
	C623.917175,815.988892 623.182800,819.705750 625.656311,822.420654 
	C625.255676,819.976013 624.942932,818.067322 624.515320,815.481140 
M808.802979,635.974609 
	C808.741943,636.300903 808.618530,636.631104 808.638428,636.952393 
	C808.656067,637.239075 808.831909,637.515869 808.940063,637.796265 
	C812.287598,633.934326 812.287598,633.934326 810.934998,631.038025 
	C809.226074,632.056396 807.942993,633.168823 808.802979,635.974609 
M848.750122,659.958374 
	C847.694824,662.129517 846.639587,664.300720 845.233826,667.192993 
	C849.649414,663.655090 850.532715,661.640076 848.750122,659.958374 
M765.537048,733.021912 
	C765.489075,733.346252 765.417603,733.670166 765.410767,733.995361 
	C765.409180,734.069519 765.630981,734.148376 765.750000,734.225037 
	C766.873535,730.225891 770.449951,728.285217 773.117493,725.564819 
	C769.802551,727.001770 767.169006,729.121521 765.537048,733.021912 
M835.491882,522.311890 
	C836.559387,519.454956 837.919373,516.683533 838.348572,512.339966 
	C835.854858,516.603516 834.619995,520.045898 834.430420,523.757324 
	C834.393433,524.480896 834.966980,523.592712 835.181335,523.332092 
	C835.276733,523.216064 835.280640,523.024841 835.491882,522.311890 
z"/>
<path fill="#000000" opacity="1.000000" stroke="none" 
	d="
M463.189972,896.661194 
	C459.354675,901.839172 455.565643,907.031677 453.151672,913.095398 
	C452.411194,914.955383 452.068909,918.096985 449.194458,917.234680 
	C446.487610,916.422668 446.993530,913.493103 447.272675,911.174561 
	C447.387115,910.223999 447.764008,909.304932 448.026733,908.352600 
	C440.558685,907.263428 437.865082,903.719360 438.606232,896.115662 
	C438.736969,894.774109 438.213257,893.840088 437.140106,893.188782 
	C434.453094,891.558105 431.807129,889.838989 429.013031,888.413513 
	C427.408325,887.594971 425.572815,887.962219 424.543396,889.538391 
	C422.515167,892.643921 419.345093,893.979553 416.310913,895.751343 
	C412.309326,898.087830 408.843140,901.086853 406.303314,905.276428 
	C401.492310,913.212585 395.772888,919.458008 385.422943,921.244446 
	C376.958313,922.705383 369.014679,925.877380 360.009918,924.429138 
	C349.958221,922.812378 343.328613,916.505920 336.945251,909.706909 
	C333.728241,906.280457 330.242096,903.243652 326.681335,900.242859 
	C323.596771,897.643372 319.838715,897.299561 316.248779,898.167542 
	C306.375275,900.554871 298.826965,895.789490 293.404327,889.062195 
	C287.194611,881.358276 280.175415,873.496338 279.954773,862.452759 
	C279.891388,859.279358 278.090424,857.372375 274.658752,856.914001 
	C266.128387,855.774902 259.825165,851.744690 256.496704,843.310120 
	C254.566422,838.418579 249.415878,838.040405 245.063904,837.622803 
	C236.590256,836.809570 229.658508,833.390991 226.422928,825.502502 
	C222.142563,815.067017 213.638962,809.390503 204.953583,803.457214 
	C196.300491,797.545959 187.253815,795.317871 176.668884,796.352722 
	C165.944000,797.401123 156.857101,788.330505 156.277985,776.737366 
	C155.816132,767.491882 156.455444,758.185364 156.743088,748.910217 
	C156.966949,741.691895 155.272339,734.706177 154.417526,727.620850 
	C153.778809,722.326416 157.137070,714.834717 161.601730,712.067688 
	C163.359863,710.978088 165.057693,711.293823 166.860580,711.934021 
	C171.227203,713.484497 174.272934,712.182922 175.956024,707.724060 
	C177.111389,704.663208 179.482529,702.100037 179.069717,698.416992 
	C178.681015,694.949280 176.885422,692.986267 173.847336,694.788574 
	C163.324539,701.030640 157.528015,693.164917 151.235657,687.423218 
	C148.048096,684.514648 147.874619,679.896729 147.341187,675.774048 
	C146.401413,668.511292 145.759033,661.209534 144.780579,653.952576 
	C144.392517,651.074341 144.432861,648.271179 145.203125,645.541992 
	C146.230316,641.902405 145.013382,639.047546 143.580811,635.653442 
	C141.522537,630.776978 141.160751,625.036011 142.895584,619.912231 
	C143.764038,617.347290 144.631409,614.832153 143.284119,612.869995 
	C140.777679,609.219788 139.674988,604.917114 137.396606,601.331543 
	C135.213974,597.896729 133.772736,594.527893 134.072464,590.636230 
	C134.431992,585.967834 132.440018,581.481812 133.457687,576.755981 
	C133.930435,574.560730 132.397446,572.325806 131.008026,570.949951 
	C127.691223,567.665588 128.274246,563.491211 128.126465,559.740356 
	C127.913094,554.324646 132.410934,553.795410 137.447876,553.755798 
	C133.897888,549.065796 133.608017,543.562683 129.426987,539.798279 
	C125.950829,536.668518 125.836243,531.474731 125.349602,527.469849 
	C124.195572,517.972778 125.475166,508.567200 135.547272,503.424744 
	C130.227875,513.877380 128.703262,521.633240 131.799194,527.701904 
	C130.095215,513.524475 136.817902,504.215332 146.303452,495.427185 
	C141.390457,496.924530 138.631073,499.903412 135.984253,503.033081 
	C135.862396,499.798035 137.366257,497.637878 139.750458,495.395721 
	C143.066116,492.277679 147.026062,489.372406 147.976654,484.411072 
	C148.316299,482.638306 149.960892,482.382538 151.140213,481.461182 
	C149.182755,480.204956 145.964828,482.132416 145.017242,479.214142 
	C144.194244,476.679565 147.512787,475.937653 148.090561,473.638397 
	C147.570068,470.984161 144.443634,470.090454 143.401215,467.649323 
	C146.408310,465.640564 149.573792,464.370331 153.273163,463.812927 
	C149.278488,461.552856 145.106689,462.213745 141.297256,461.341949 
	C137.282150,460.423065 133.058258,460.384796 128.917908,460.059357 
	C127.096909,459.916199 125.256897,460.000153 123.425598,460.005737 
	C117.567429,460.023499 117.173462,459.456940 119.140610,454.157593 
	C119.597351,452.927216 119.905838,451.601013 120.026009,450.295288 
	C120.256416,447.791504 121.341484,446.451965 123.982887,446.038635 
	C128.245789,445.371582 133.537659,440.258301 133.613663,436.140167 
	C133.686539,432.190399 136.095261,428.645782 135.176071,424.593933 
	C135.031479,423.956482 135.742783,423.124817 136.049393,422.403992 
	C138.152588,422.248474 138.964447,424.140930 140.517090,425.057159 
	C138.777344,427.939087 135.283539,431.491821 138.649017,433.263672 
	C141.738251,434.890106 141.702850,438.138458 145.022385,440.304779 
	C142.173843,434.839386 142.523361,429.712677 141.013168,425.008942 
	C141.809998,423.857147 141.998337,422.560028 141.927017,421.200867 
	C138.196091,419.193542 136.252396,412.558838 138.572159,409.039612 
	C141.772293,404.184845 144.029037,398.803162 147.788239,394.219055 
	C151.316238,389.916870 148.172699,384.573914 141.701767,383.002991 
	C135.692749,381.544189 133.295532,378.752502 134.055832,373.894043 
	C134.227676,372.795868 134.578491,371.277618 135.364334,370.794678 
	C141.584290,366.972137 145.303940,359.912048 152.645432,357.554871 
	C154.601944,356.926666 156.264709,355.576019 157.011734,353.658539 
	C158.660248,349.427124 161.018814,345.956024 164.244293,342.578247 
	C166.631256,340.078522 166.667786,335.418121 168.181198,331.812042 
	C169.083191,329.662933 169.916733,328.094208 171.915878,326.951233 
	C174.748306,325.331848 177.514862,322.951538 177.180344,319.662079 
	C176.854950,316.462311 173.345337,315.432800 170.573883,314.213074 
	C167.205627,312.730713 163.745636,312.725372 160.280884,313.460388 
	C156.236618,314.318390 154.359543,312.350677 153.485870,308.759644 
	C152.316269,303.952118 154.177597,298.941010 158.045105,295.930664 
	C162.568008,292.410217 167.911377,290.402954 172.912567,287.794342 
	C175.965240,286.202026 179.425690,286.598022 182.517563,288.386414 
	C187.224030,291.108765 191.356247,290.552460 195.059128,286.477844 
	C198.638779,282.538849 202.621368,278.930725 205.899872,274.762634 
	C209.661179,269.980774 215.292862,267.732544 219.635727,263.647278 
	C225.125946,258.482697 229.547806,253.170471 231.168488,245.793198 
	C231.792816,242.951263 232.442902,239.810852 235.069870,238.533173 
	C241.527618,235.392334 244.225037,227.977051 250.888428,225.150803 
	C251.794739,224.766388 252.674988,223.471222 252.893539,222.453125 
	C254.272690,216.028198 259.242584,213.960648 264.684662,212.368835 
	C266.907074,211.718765 269.075256,211.832047 270.813385,213.404892 
	C274.396667,216.647446 277.692352,216.778671 281.990448,214.167511 
	C289.089203,209.854919 293.090454,212.085449 294.624451,220.237701 
	C295.429260,224.514603 293.493683,226.775299 289.734009,228.243088 
	C279.709473,232.156693 275.104156,245.519287 280.455566,254.912704 
	C282.885834,259.178589 282.885834,259.178589 279.684845,262.471375 
	C281.850647,265.833618 284.825989,268.560303 287.817505,271.109833 
	C291.297791,274.075867 291.028687,276.411499 287.807617,279.143585 
	C285.653870,280.970398 283.644745,282.967712 281.834320,285.261322 
	C283.660156,285.195435 284.654816,283.285065 286.832214,283.585754 
	C288.984131,286.603760 289.981934,290.104980 290.055359,294.033539 
	C290.316986,308.032745 294.652740,311.773682 308.641510,309.707245 
	C318.399933,308.265717 328.070984,309.280457 337.389526,311.571747 
	C352.811737,315.363922 361.309937,331.632324 353.306061,346.268036 
	C346.692108,358.362122 338.096313,367.579132 325.877869,373.560272 
	C320.301636,376.289948 314.980286,379.479736 310.382782,383.567322 
	C303.927124,389.307159 296.279968,390.710236 288.144653,390.913849 
	C282.814423,391.047302 277.476196,391.187500 272.149139,391.043701 
	C264.958954,390.849640 257.854706,392.900269 253.288879,397.645782 
	C248.767166,402.345551 245.019745,405.018921 238.645020,403.126556 
	C237.568329,402.806976 236.201965,403.449402 235.742584,404.657806 
	C233.711105,410.001465 228.540085,411.936066 224.319458,414.512024 
	C219.645279,417.364777 218.495132,420.881500 219.154861,425.789001 
	C219.968231,431.839539 218.749268,433.896118 213.018494,436.339355 
	C210.380630,437.463959 209.676575,439.848206 208.733551,442.165497 
	C205.475922,450.170593 204.766922,458.997528 200.458328,466.720276 
	C198.985718,469.359772 197.273834,471.750366 195.536972,474.142792 
	C193.562302,476.862793 190.306229,478.661987 190.769592,482.904083 
	C191.005402,485.063049 187.882935,486.691467 186.972885,487.378113 
	C183.247467,490.189117 184.762833,492.217285 186.353027,494.927795 
	C186.903229,495.865601 186.828720,497.169983 186.759766,498.506409 
	C180.740097,493.895081 179.865753,493.993347 175.672165,500.152710 
	C177.198669,501.802368 177.908890,503.915375 178.334503,506.221680 
	C178.754364,508.496857 179.965973,510.433319 182.741684,509.688995 
	C185.736206,508.886078 184.779205,506.503143 184.589188,504.381805 
	C184.309479,501.258850 180.580734,500.669098 179.743225,497.944061 
	C182.162216,496.105865 183.250183,497.746704 184.224899,499.289948 
	C185.146439,500.749084 186.056763,502.068756 188.036758,501.931030 
	C188.230957,505.615540 191.218765,510.130280 188.089447,512.780396 
	C183.761047,516.445923 185.791626,521.812744 183.115891,525.469360 
	C180.188446,529.469910 178.079514,534.037659 174.461487,537.582336 
	C173.036713,538.978271 172.187744,541.290405 173.895844,543.000549 
	C175.852295,544.959290 177.511780,542.869690 179.132675,541.882996 
	C181.278412,540.576721 182.892883,538.098145 187.104431,538.735291 
	C179.729874,550.282043 169.967590,555.124146 157.360397,553.789001 
	C156.802307,555.327026 157.491074,556.182434 158.101990,556.410889 
	C163.887192,558.574036 168.680115,563.415894 175.651321,562.438599 
	C181.402542,561.632324 187.361969,560.700378 191.918869,565.967529 
	C192.407516,566.532288 193.363693,566.827087 194.153793,566.974121 
	C198.449265,567.773499 202.293320,569.099670 202.868195,574.864197 
	C208.058701,572.222351 211.926529,569.253479 214.996048,565.353394 
	C217.628662,562.008423 220.804077,559.991943 225.114990,559.753052 
	C227.300781,559.631836 229.316727,558.784607 231.239792,557.736694 
	C241.368378,552.217529 249.094467,553.197205 257.672729,561.218994 
	C263.564789,566.728821 267.936310,573.375793 272.101837,580.252258 
	C280.701294,594.448364 287.994965,609.462646 299.443848,621.877502 
	C304.368835,627.217957 310.382965,631.062134 315.567291,635.974854 
	C328.237152,647.980957 337.166565,662.963928 347.829926,676.553772 
	C353.748779,684.097046 360.091003,691.304260 365.387756,699.454773 
	C370.526520,707.362122 373.904022,715.670593 376.019897,724.534180 
	C378.597168,735.330750 383.272766,744.801636 390.515900,753.169373 
	C398.041840,761.863770 402.990021,772.479614 410.901306,780.908325 
	C412.721741,782.847778 414.319122,785.112915 416.449310,786.620300 
	C420.427643,789.435364 422.429443,793.151855 423.111969,797.836792 
	C423.838959,802.826965 427.851318,805.791992 430.891083,809.146851 
	C432.794556,811.247437 435.898621,809.804688 438.318604,808.484131 
	C442.279419,806.322876 446.266968,806.705139 450.358490,808.197632 
	C454.605835,809.746948 456.645813,812.593933 456.991974,817.147766 
	C457.407318,822.611816 458.324310,828.037903 459.032623,833.479370 
	C459.336578,835.814270 459.955444,838.074951 461.160492,840.098022 
	C463.107513,843.366760 466.003906,843.522217 468.363251,840.524475 
	C469.379181,839.233582 469.584534,836.414062 472.172974,838.058777 
	C474.564362,839.578369 473.131805,841.500977 472.132019,843.266846 
	C471.759857,843.924072 471.616333,844.710693 471.884399,845.724976 
	C473.392181,840.993469 478.644714,838.895447 479.666260,833.885925 
	C479.848572,832.992004 480.466827,832.413330 481.447754,832.523254 
	C482.431671,832.633606 482.792206,833.379333 482.930817,834.252136 
	C483.373322,837.038513 482.113495,839.420654 481.011597,841.751953 
	C488.386810,850.291077 493.138885,859.563660 490.859283,871.171082 
	C490.701050,871.976929 490.700439,873.222290 490.207458,873.489197 
	C486.379883,875.561462 487.552490,879.044922 487.949860,883.396667 
	C479.844879,875.165833 476.340698,883.210693 470.996948,886.757568 
	C468.230469,886.645203 467.868317,888.511780 467.078918,889.863098 
	C465.762146,892.117188 464.484253,894.393982 463.189972,896.661194 
M260.487518,222.440125 
	C256.388031,225.420441 257.200012,232.171890 250.386215,233.829834 
	C252.907425,234.763809 253.449387,236.810120 255.758301,236.348953 
	C255.646393,230.883377 259.184998,226.767303 261.638123,221.769592 
	C264.069244,219.632599 266.002899,219.831909 268.250885,222.398880 
	C270.548706,225.022766 273.459351,227.110031 275.665344,229.048706 
	C274.586914,226.246582 271.386139,224.234573 269.140808,221.483093 
	C266.111328,217.770676 263.473450,218.142166 260.487518,222.440125 
M168.621506,343.631683 
	C168.351532,349.206055 163.176956,352.976501 163.154938,359.055023 
	C164.324707,355.413727 167.095856,358.163269 169.453964,356.932892 
	C167.211761,352.398193 169.673523,347.704315 169.531891,342.596954 
	C172.262802,338.946686 173.505829,334.391602 176.647385,330.988770 
	C172.299026,333.870880 170.225296,338.178009 168.621506,343.631683 
M173.612854,531.783325 
	C179.995438,526.551208 182.361374,520.710388 176.981232,513.213928 
	C175.278671,510.841736 173.455154,507.913330 173.355469,505.178680 
	C173.190292,500.648163 170.901001,500.502106 167.848755,501.081573 
	C165.658615,498.469299 168.424789,493.907257 164.237686,492.064148 
	C167.401321,506.918030 165.517578,521.728210 167.829483,536.177856 
	C170.994110,536.091858 172.257904,534.311951 172.998901,531.989014 
	C172.998901,531.989014 172.968719,532.022156 173.612854,531.783325 
M198.925385,634.656677 
	C196.418793,631.924377 193.912201,629.192078 190.972046,625.987122 
	C190.242157,631.278992 190.242157,631.278992 196.268997,640.558167 
	C196.489670,638.401978 198.817657,637.443237 198.925385,634.656677 
M249.171097,284.831238 
	C246.766205,287.977478 244.361313,291.123688 241.956406,294.269928 
	C244.672760,292.189514 247.976181,292.559448 250.848221,291.030182 
	C251.028641,292.169464 251.075562,292.823578 251.249619,293.441864 
	C251.370224,293.870270 250.887543,294.644073 251.846634,294.696930 
	C252.689194,286.850616 252.689194,286.850616 250.641083,285.456970 
	C251.189972,284.183502 251.748596,282.887482 252.307220,281.591461 
	C252.120270,281.478485 251.933334,281.365479 251.746384,281.252472 
	C251.000366,282.256378 250.254364,283.260254 249.171097,284.831238 
M203.553070,290.076355 
	C204.837387,286.918427 206.121689,283.760498 207.792526,279.652222 
	C199.626068,290.070251 198.995895,306.540009 207.027466,314.524628 
	C202.748199,307.058990 201.118958,299.205170 203.553070,290.076355 
M150.766891,510.874634 
	C143.199722,517.994629 142.116440,523.792236 147.317001,530.411133 
	C145.653198,527.176514 145.616684,523.723633 145.810379,520.259033 
	C145.895966,518.728210 146.677994,516.389343 147.883789,516.751831 
	C154.040421,518.602417 151.536392,514.315125 152.454330,511.589447 
	C153.536224,508.376862 152.035782,510.371338 150.766891,510.874634 
M208.410263,425.354401 
	C208.994614,423.706787 209.572144,421.845764 207.014313,421.621246 
	C203.639526,421.324982 203.177002,419.025513 202.851959,416.450256 
	C202.629257,414.685791 202.640457,412.841400 200.559052,410.697723 
	C202.871277,417.413361 202.169846,423.480896 202.397949,429.918793 
	C201.840347,424.721588 205.566422,426.285919 208.410263,425.354401 
M220.954422,291.279724 
	C225.176208,294.675476 226.183167,290.604889 228.108109,288.487000 
	C226.312912,286.086609 222.441986,288.500519 221.589569,284.735779 
	C219.914429,286.804291 218.113647,288.354889 218.099442,290.954132 
	C218.959061,291.079315 219.734604,290.203125 220.954422,291.279724 
M143.805420,549.689453 
	C145.717453,550.521057 147.312225,552.116089 149.787033,551.949524 
	C140.743073,547.672485 135.230209,540.416016 132.205063,531.030701 
	C132.928177,539.039978 137.270142,544.688904 143.805420,549.689453 
M332.417480,776.809631 
	C329.464081,774.136780 326.510712,771.463928 323.557312,768.791077 
	C327.080566,772.672546 329.691315,777.053589 331.818481,782.050354 
	C332.670044,780.404053 337.053589,779.856323 332.417480,776.809631 
M439.367889,892.016785 
	C440.236053,895.260681 439.743652,898.870117 441.920990,902.153931 
	C442.419220,898.786438 440.223175,885.314636 438.164124,878.828552 
	C438.142853,883.324463 439.817352,887.138855 439.367889,892.016785 
M183.543167,473.860870 
	C183.479950,475.647736 180.915619,476.594910 181.879105,478.753296 
	C183.529938,480.024078 185.125397,479.319519 186.433823,478.355713 
	C188.604111,476.756989 187.538330,474.717804 186.499847,473.076508 
	C185.747543,471.887512 184.342636,470.305267 183.543167,473.860870 
M372.739838,818.287109 
	C371.596649,818.743347 370.240784,817.324829 369.150726,818.627625 
	C372.953674,823.282715 374.343933,823.416504 378.297607,819.565063 
	C377.266754,816.901672 375.294006,817.720642 372.739838,818.287109 
M146.767151,617.206360 
	C146.513855,616.308960 146.806351,615.167725 145.010193,614.382080 
	C145.752747,617.885071 146.299408,621.026917 147.099533,624.102844 
	C148.221481,628.415955 149.207108,628.543457 153.161850,624.576416 
	C148.242111,624.721558 147.233292,621.567627 146.767151,617.206360 
M471.416992,880.302307 
	C471.132874,881.033203 470.848755,881.764160 470.131500,883.609436 
	C476.092987,878.991577 475.809906,872.644287 477.959930,867.490112 
	C475.870087,871.568970 473.780273,875.647827 471.416992,880.302307 
M429.064545,822.410339 
	C434.402557,824.779724 440.118561,824.463440 445.720856,824.972961 
	C440.507599,822.781494 434.842926,823.516602 429.064545,822.410339 
M162.099640,482.681549 
	C162.341034,482.486603 162.603790,482.310822 162.808517,482.082947 
	C162.858444,482.027313 162.718063,481.800751 162.665192,481.652771 
	C160.091278,482.705963 155.518509,479.421631 154.780914,484.934631 
	C158.334244,487.306732 159.879089,484.769470 162.099640,482.681549 
M197.331604,652.948547 
	C198.111282,653.916931 197.818588,655.703003 200.121323,656.202881 
	C197.525391,650.562134 195.134293,645.366516 192.743210,640.170959 
	C192.506699,640.279724 192.270172,640.388489 192.033661,640.497253 
	C193.724945,644.426758 195.416214,648.356323 197.331604,652.948547 
M143.958954,412.995880 
	C146.784515,407.742859 149.105713,402.178497 153.529907,397.909546 
	C148.757614,402.077454 144.091125,406.306335 143.958954,412.995880 
M406.131042,862.495239 
	C404.872009,865.026794 403.612946,867.558289 402.353912,870.089844 
	C402.602722,870.204956 402.851532,870.320068 403.100342,870.435120 
	C405.585327,865.538757 408.070343,860.642395 410.555328,855.746033 
	C410.283447,855.606506 410.011597,855.466980 409.739746,855.327454 
	C408.634247,857.493896 407.528748,859.660400 406.131042,862.495239 
M137.936737,522.682251 
	C137.819931,520.736572 138.910461,518.493713 136.650085,516.866089 
	C134.397873,518.838867 134.852249,521.258423 135.339294,523.378723 
	C135.829147,525.511353 136.974503,525.039490 137.936737,522.682251 
M193.660782,748.694946 
	C190.811996,745.130554 188.456512,741.218689 186.037567,737.337891 
	C186.531021,739.349548 187.291443,741.174622 188.278351,742.867676 
	C189.707199,745.318909 190.694565,748.218933 193.660782,748.694946 
M274.151611,727.188416 
	C273.367798,726.136536 272.628571,725.047302 271.787292,724.043579 
	C270.980255,723.080750 270.549652,721.597534 268.658508,721.481628 
	C270.651917,725.024597 275.419189,727.845154 270.240479,732.352356 
	C272.112305,730.960571 274.796814,730.688965 274.151611,727.188416 
M221.247177,652.066101 
	C220.701126,655.415100 220.155060,658.764099 219.554932,662.444763 
	C223.005402,654.375183 223.201157,652.805359 221.235291,649.340576 
	C221.235291,650.068909 221.235291,650.724243 221.247177,652.066101 
M265.337463,272.099609 
	C263.362152,270.012146 261.386841,267.924683 259.411530,265.837219 
	C259.279877,265.972290 259.148224,266.107361 259.016571,266.242432 
	C262.523712,269.499237 266.030853,272.756073 268.646393,275.184967 
	C268.548309,274.794159 266.852997,273.936462 265.337463,272.099609 
M135.779663,577.134827 
	C136.244720,577.806091 136.650406,578.576721 138.191376,578.148926 
	C138.319809,575.646973 137.201385,573.488464 136.112656,570.783081 
	C134.690384,573.035645 135.092255,574.783264 135.779663,577.134827 
M178.010483,568.356079 
	C175.832092,568.207031 173.653702,568.058044 171.475311,567.909058 
	C171.457123,568.104370 171.438919,568.299744 171.420715,568.495056 
	C175.142960,569.152283 178.865189,569.809448 182.587418,570.466675 
	C182.646896,570.200562 182.706390,569.934509 182.765869,569.668396 
	C181.425888,569.291809 180.085892,568.915222 178.010483,568.356079 
M135.238480,565.835266 
	C134.173737,562.222656 137.641052,563.128845 139.820709,562.194153 
	C137.199432,561.117981 135.310471,560.597961 133.774673,562.497437 
	C132.975204,563.486145 133.349915,564.239014 135.238480,565.835266 
M159.753647,645.069336 
	C159.549973,644.852722 160.267349,643.941345 159.232468,644.371643 
	C159.121429,644.417725 159.048569,644.656677 159.031921,644.814026 
	C158.589890,648.989929 159.045807,653.045959 160.800858,656.931396 
	C160.437607,653.169495 160.074341,649.407532 159.753647,645.069336 
M246.770996,253.785675 
	C244.919800,249.992661 241.523209,247.525345 238.815842,244.457718 
	C240.172318,248.625809 244.117523,250.709702 246.770996,253.785675 
M232.202881,401.640778 
	C232.973297,399.916290 233.743698,398.191772 234.514099,396.467285 
	C234.228424,396.370575 233.942749,396.273834 233.657074,396.177124 
	C231.924896,399.196014 230.192719,402.214905 228.259079,405.584869 
	C230.603928,405.241974 231.008179,403.489685 232.202881,401.640778 
M186.599915,654.474854 
	C185.174362,651.138123 183.748825,647.801392 182.323273,644.464661 
	C183.155212,648.220154 183.124481,652.344788 186.599915,654.474854 
M177.156479,585.789856 
	C174.168427,588.059143 171.180359,590.328430 168.192291,592.597656 
	C171.226501,590.160034 175.998856,589.865845 177.156479,585.789856 
M177.075165,621.318237 
	C174.283478,622.870850 171.005936,623.730164 169.251328,626.749634 
	C172.563843,624.793518 175.876358,622.837402 179.188873,620.881348 
	C179.099457,620.745178 179.010040,620.609070 178.920624,620.472900 
	C178.486084,620.684143 178.051544,620.895325 177.075165,621.318237 
M225.782089,297.555054 
	C226.238876,296.389008 227.864410,295.710815 227.264465,293.844482 
	C225.106430,297.186646 222.234421,299.807281 221.279099,303.659241 
	C222.648590,301.797028 224.018066,299.934784 225.782089,297.555054 
M276.516937,807.434143 
	C276.288269,807.515991 276.051666,807.583374 275.841522,807.698914 
	C275.816864,807.712463 275.917053,808.001770 275.993927,808.144714 
	C277.796021,811.493469 280.594360,813.874817 283.655121,816.019043 
	C281.410278,813.246887 278.626099,810.942810 276.516937,807.434143 
M186.155243,702.335144 
	C187.378418,699.725037 188.919647,697.297668 190.664871,694.987610 
	C187.119431,697.224182 185.682236,700.671204 185.132965,704.599060 
	C185.385895,704.027649 185.638840,703.456238 186.155243,702.335144 
z"/>
<path fill="#000000" opacity="1.000000" stroke="none" 
	d="
M502.256104,869.352295 
	C498.725677,869.753296 497.991455,867.274780 497.603973,865.031311 
	C496.038483,855.968079 492.111145,847.307129 492.940918,837.825745 
	C493.039062,836.704407 493.147034,835.858032 494.719086,835.616455 
	C498.258728,837.837219 495.065826,844.093445 500.444550,845.677917 
	C500.883179,842.384033 501.311646,839.166504 501.749176,835.880859 
	C504.079773,836.977478 503.775482,837.031860 505.876709,848.789551 
	C506.794983,853.927917 503.965210,857.906799 502.629974,863.622131 
	C505.017059,861.822388 504.658539,858.411865 507.424805,859.510925 
	C509.629517,860.386841 510.078430,862.467590 509.822083,864.532043 
	C509.196838,869.567993 511.156464,874.851624 508.386597,879.673218 
	C503.574890,879.716797 500.583344,877.841003 500.519135,872.273926 
	C503.497772,872.629578 502.407745,876.316467 504.999146,876.717346 
	C507.597687,873.413391 505.011292,870.201843 504.737793,866.514343 
	C503.850830,867.615906 503.200806,868.423218 502.256104,869.352295 
z"/>
<path fill="#000000" opacity="1.000000" stroke="none" 
	d="
M888.266602,414.927765 
	C887.261047,414.778717 886.564575,414.753143 885.976990,414.487091 
	C885.608032,414.320007 885.402405,413.791992 884.928833,413.170349 
	C890.269653,409.599030 896.124084,414.841858 901.216675,411.658936 
	C900.908264,408.604919 897.226318,406.062531 893.613647,407.413574 
	C890.412354,408.610718 888.782776,406.868866 886.761230,405.681335 
	C886.811646,403.516479 888.179077,402.984711 889.491516,403.069122 
	C894.118042,403.366852 898.799255,403.536804 903.324158,404.436676 
	C906.288757,405.026276 907.415771,407.648438 906.677490,410.720001 
	C905.760803,414.534180 906.314514,418.754303 903.436401,422.053009 
	C903.016113,422.534668 903.278381,423.611816 903.230286,424.331512 
	C904.930542,425.125946 904.765015,423.199951 906.144775,422.985565 
	C907.148682,425.625702 909.267761,428.150940 906.676392,431.041809 
	C904.356506,431.157990 905.630066,428.570801 903.992920,428.315735 
	C903.460083,429.045624 902.919678,429.785828 902.066223,430.954865 
	C899.222839,423.886597 896.210205,417.406281 888.266602,414.927765 
z"/>
<path fill="#000000" opacity="1.000000" stroke="none" 
	d="
M833.038086,333.885681 
	C833.527649,333.710632 834.017212,333.535583 834.639038,333.307373 
	C836.499634,332.729889 838.193726,332.101044 839.606750,333.998688 
	C840.948364,335.800415 842.999695,336.327087 845.068237,336.932037 
	C848.636780,337.975586 849.649902,339.913910 846.293823,342.890625 
	C845.982117,342.980499 846.013306,343.002838 845.777283,342.761871 
	C842.171692,341.137665 838.862122,339.573059 835.412598,338.431610 
	C832.896423,337.599060 832.398743,336.148254 833.038086,333.885681 
z"/>
<path fill="#000000" opacity="1.000000" stroke="none" 
	d="
M463.165100,897.043945 
	C464.484253,894.393982 465.762146,892.117188 467.078918,889.863098 
	C467.868317,888.511780 468.230469,886.645203 470.715576,886.936340 
	C470.722229,892.622742 467.306671,896.678650 464.225372,900.968079 
	C462.374298,900.081604 463.321442,898.597961 463.165100,897.043945 
z"/>
<path fill="#000000" opacity="1.000000" stroke="none" 
	d="
M904.767944,468.482300 
	C905.490906,465.981842 906.227722,463.786377 907.002625,461.242676 
	C911.248901,463.582336 910.757202,468.135437 905.782166,472.261200 
	C904.023315,471.519196 905.099487,469.944000 904.767944,468.482300 
z"/>
<path fill="#000000" opacity="1.000000" stroke="none" 
	d="
M843.298401,479.622314 
	C837.933289,474.124603 838.700745,474.378754 841.271484,471.774261 
	C842.383972,475.491547 846.426392,477.013336 847.437256,480.750092 
	C845.482178,482.291351 844.589661,480.779907 843.298401,479.622314 
z"/>
<path fill="#000000" opacity="1.000000" stroke="none" 
	d="
M108.715439,460.436218 
	C110.118164,458.083740 109.977333,455.186768 112.627388,453.813934 
	C115.800224,455.449249 113.865494,457.086792 112.849922,458.940979 
	C111.835060,460.793854 111.256866,462.885925 110.364159,465.190979 
	C108.569237,464.124146 107.953239,462.733521 108.715439,460.436218 
z"/>
<path fill="#000000" opacity="1.000000" stroke="none" 
	d="
M860.089478,430.190186 
	C862.841980,428.373322 865.169861,428.179932 867.530518,431.977234 
	C864.321777,431.726074 861.657166,434.188049 860.089478,430.190186 
z"/>
<path fill="#000000" opacity="1.000000" stroke="none" 
	d="
M833.027161,468.350586 
	C833.134216,467.997925 833.466980,467.978607 833.631409,467.964813 
	C834.282715,470.266418 836.228088,472.128021 836.147034,475.371094 
	C831.273926,474.501129 832.112915,471.594299 833.027161,468.350586 
z"/>
<path fill="#000000" opacity="1.000000" stroke="none" 
	d="
M171.267059,507.247925 
	C173.480667,508.669647 174.506760,510.733154 175.512955,512.818665 
	C175.957993,513.741028 176.492691,515.220093 175.757233,515.559937 
	C172.063629,517.266785 173.090424,520.997498 171.830460,524.964233 
	C170.124191,518.322815 171.708557,512.713135 171.267059,507.247925 
z"/>
<path fill="#000000" opacity="1.000000" stroke="none" 
	d="
M173.011536,531.970459 
	C171.933044,532.635498 171.004517,533.767456 169.236969,533.159546 
	C167.924881,530.908875 167.397171,528.530151 169.532898,524.872009 
	C169.677017,528.411255 173.435379,528.482483 173.003448,531.769409 
	C172.968719,532.022156 172.998901,531.989014 173.011536,531.970459 
z"/>
</svg>